<svg width="328" height="996" viewBox="0 0 328 996" fill="none" xmlns="http://www.w3.org/2000/svg">
<path opacity="0.33" fill-rule="evenodd" clip-rule="evenodd" d="M315.669 7.40059L318.146 8.06442C343.761 15.1692 367.657 26.8828 389.506 42.6342C412.361 59.1378 431.306 79.4216 445.786 102.854C478.885 155.897 486.782 221.016 468.404 291.406C430.178 438.558 508.573 577.608 571.796 689.748L572.368 690.762C601.099 741.187 628.121 788.981 640.102 829.848C653.535 875.208 647.773 908.424 621.713 934.512C594.391 961.709 557.151 979.974 510.401 988.689C473.235 995.869 430.233 996.899 382.298 992.021C305.037 984.129 240.296 962.684 232.961 960.254C232.556 960.12 232.326 960.044 232.279 960.031C189.541 942.062 152.14 919.488 121.307 893.122C92.4249 868.486 68.2484 839.8 49.7831 807.816L49.7819 807.814C48.6282 805.816 47.4747 803.818 46.5461 801.88C82.2298 865.995 141.144 920.887 232.46 959.355C232.524 959.373 232.805 959.464 233.293 959.624C241.338 962.254 305.653 983.278 382.254 991.285C457.4 999.11 559.776 995.402 621.383 933.941C647.097 908.243 653.085 875.087 639.592 829.952C627.385 789.025 600.588 741.291 572.082 690.927C540.114 634.566 504.144 570.615 481.291 503.661C456.463 430.649 451.291 364.422 465.447 301.602C429.62 442.636 504.942 575.955 565.604 683.326L565.604 683.326L565.813 683.695L567.288 686.321L568.305 688.132C594.682 735.075 619.554 779.34 630.866 817.476C643.534 861.182 637.849 893.212 613.052 918.19C586.767 944.217 550.895 961.883 506.188 970.18C470.329 976.986 429.025 977.988 382.951 973.368C308.368 965.586 245.579 944.933 239.35 942.884L239.35 942.884C239.048 942.785 238.88 942.73 238.848 942.721C197.852 925.46 161.907 903.759 132.244 878.431C104.532 854.832 81.3005 827.124 63.4344 796.508C57.1694 785.656 51.4754 774.475 46.4131 762.739C78.601 836.297 138.166 899.57 239.029 942.046C239.095 942.063 239.373 942.154 239.855 942.311C247.701 944.869 309.451 965.002 382.907 972.632C455.005 980.122 553.476 976.575 612.497 917.559C637.233 892.806 642.859 861.001 630.069 817.745C618.402 778.41 592.533 732.615 565.181 684.25C534.532 630.173 499.821 568.732 478.001 504.228C455.324 437.19 449.645 376.092 460.97 318.249C431.252 450.742 502.019 575.882 559.198 676.854C585.56 723.505 610.274 767.302 621.629 805.104C634.044 847.053 628.72 877.732 604.736 901.479C579.654 926.622 545.21 943.462 502.26 951.507C467.933 957.999 428.101 958.913 384.175 954.385C312.551 946.927 252.538 927.23 246.485 925.243L246.485 925.243C246.187 925.146 246.02 925.091 245.989 925.082C232.241 919.262 219.127 912.957 206.659 906.174C218.91 912.77 231.814 918.935 245.373 924.676C245.48 924.704 245.861 924.824 246.502 925.027C249.938 926.109 260.853 929.548 277.173 933.921C302.622 940.74 341.046 949.587 383.56 953.978C452.61 961.135 546.95 957.688 603.61 901.177C627.369 877.37 632.632 846.916 620.321 805.478C609.542 768.922 585.807 726.63 560.576 681.672L560.576 681.672L559.457 679.679L558.116 677.288L556.354 674.157C527.518 622.922 495.137 565.386 474.486 504.735C452.395 439.616 447.251 380.655 458.458 324.549C428.69 452.209 496.912 572.953 552.071 670.116L553.565 672.781L554.47 674.396L554.529 674.501C578.613 717.47 601.353 758.039 611.595 793.001C623.532 833.132 618.346 862.399 595.278 885.427C571.234 909.399 538.157 925.641 496.965 933.432C464.171 939.611 425.975 940.722 383.747 936.165C314.779 929.036 256.847 909.748 251.879 908.094C251.67 908.025 251.555 907.986 251.536 907.981C178.7 877.12 124.43 831.922 90.5113 773.831C61.4341 723.796 46.4583 662.574 46.1229 591.757C45.3624 462.168 92.3135 323.88 126.649 222.765C127.732 219.529 128.809 216.319 129.875 213.14L129.876 213.136L129.878 213.132L129.879 213.129L129.88 213.125C137.135 191.494 143.922 171.258 149.246 153.747C160.916 115.597 185.371 87.3891 220.009 72.5311C251.054 59.3661 288.244 57.503 325.179 67.3998L327.432 68.0032C373.87 81.1706 414.986 111.499 439.93 151.736C466.555 194.544 474.771 246.08 463.751 301.906C495.997 164.171 414.624 74.2075 323.91 48.7143L321.658 48.1108C269.085 34.0239 207.229 41.8133 168.452 84.17C180.631 70.6429 195.594 59.98 213.049 52.5622C244.501 38.7818 283.327 37.1159 322.064 47.4955L324.542 48.1593C373.232 61.9301 416.134 93.7024 442.127 135.427C470.229 180.463 478.476 234.87 466.736 293.546C500.9 149.47 415.889 55.4786 321.02 28.8697L318.768 28.2662C246.023 8.77429 155.973 29.5439 128.182 121.55C122.302 141.084 114.612 163.785 106.427 187.947L106.427 187.948L106.426 187.949C105.439 190.863 104.445 193.799 103.445 196.753C67.7109 301.896 20.9527 440.243 15.7728 572.416C20.7196 439.92 67.5311 301.499 102.386 198.434L102.386 198.434L102.386 198.431L102.995 196.632C103.985 193.706 104.97 190.797 105.948 187.91L105.975 187.832C114.16 163.668 121.851 140.965 127.732 121.429C140.368 79.6753 166.899 49.1274 204.721 33.1918C238.112 18.4825 278.471 16.503 318.784 27.305L321.262 27.9688C371.979 42.2827 416.667 75.499 443.874 118.998C474.156 167.67 482.455 226.953 468.033 290.977C507.865 137.249 418.268 36.8222 317.965 8.7401L315.488 8.07628C239.815 -12.2001 146.129 9.52643 117.087 105.301C110.256 128.092 101.092 155.086 91.2803 183.597L90.9121 184.685L90.9119 184.686C54.9508 291.004 8.11316 429.478 0.453631 563.105C7.88682 428.786 54.7533 289.764 89.9866 185.249L90.6047 183.416C91.92 179.496 93.2274 175.605 94.5225 171.751C102.666 147.518 110.324 124.732 116.412 105.12C129.47 61.7893 157.264 30.1314 196.575 13.1462C231.497 -1.87669 273.779 -3.82384 315.669 7.40059ZM15.3226 601.132C15.2394 591.603 15.3962 582.025 15.7728 572.416C15.4474 581.133 15.3031 589.825 15.3554 598.479C15.3406 599.362 15.3296 600.247 15.3226 601.132ZM15.7517 618.62C15.5152 612.811 15.3737 606.981 15.3226 601.132C15.2765 606.987 15.4063 612.866 15.7517 618.62ZM138.887 137.454C145.498 115.675 155.733 98.0631 168.452 84.17C155.351 98.7205 145.471 116.585 139.172 137.289C132.824 158.279 124.489 183.081 115.506 209.399C79.7382 314.958 30.8721 459.493 31.5356 594.849C31.9874 668.835 47.4856 732.611 77.8818 784.93C106.839 834.816 150.114 875.413 206.659 906.174C89.8182 843.271 32.2763 741.211 31.3104 594.788C30.5866 459.657 79.4526 315.123 115.22 209.564C124.203 183.246 132.539 158.444 138.887 137.454ZM383.988 935.265C343.336 931.131 306.489 922.706 282.166 916.189C270.275 913.003 261.379 910.219 256.474 908.684C253.761 907.835 252.27 907.368 252.168 907.426C115.142 849.468 48.16 746.31 47.3093 591.834C46.7137 462.53 93.4395 324.182 127.775 223.066C128.594 220.623 129.411 218.191 130.223 215.772L130.224 215.769C137.733 193.407 144.861 172.176 150.372 154.049C175.886 69.6399 258.499 50.4984 325.163 68.361L327.19 68.9041C412.797 93.0106 489.45 176.698 462.385 305.085C471.037 254.296 462.821 207.293 438.469 168C414.454 129.702 375.244 100.367 330.772 87.9679L328.52 87.3644C293.161 77.89 257.443 79.6649 228.44 92.4118C195.231 106.446 171.874 133.257 160.851 169.892C155.765 186.53 149.275 205.697 142.323 226.227L142.323 226.229L142.323 226.23L142.322 226.231C141.258 229.375 140.182 232.552 139.099 235.756L138.764 236.747L138.764 236.748C106.175 333.168 61.6125 465.014 62.2426 588.352C62.303 596.422 62.5595 604.365 63.0121 612.178C69.3712 732.313 120.943 817.695 219.705 871.752C231.972 878.55 244.945 884.826 258.616 890.567C258.649 890.576 258.82 890.632 259.122 890.732C264.954 892.655 319.913 910.778 385.136 917.468C425.502 921.766 461.715 920.848 493.262 914.818C532.637 907.505 564.06 892.028 587.128 869C608.932 847.083 614.042 819.003 602.583 780.689C592.475 746.641 570.256 707.245 546.64 665.373L545.456 663.274C493.994 572.555 430.642 460.632 454.263 341.827C445.701 392.779 451.272 446.577 471.196 505.301C491.295 564.517 523.038 620.818 551.215 670.611L552.37 672.656C577.147 716.542 600.371 757.674 610.799 793.271C622.571 833.116 617.445 862.158 594.723 884.795C540.649 938.861 450.215 942.147 383.988 935.265ZM258.001 890.161C244.529 884.488 231.765 878.354 219.705 871.752C169.279 843.808 130.773 807.03 104.733 762.193C80.2946 720.153 66.3437 669.697 63.0121 612.178C62.6082 604.547 62.3866 596.775 62.347 588.862C61.6569 465.749 106.219 333.904 138.808 237.484L138.808 237.483L139.143 236.492C147.523 212.426 155.09 189.59 160.956 170.403C185.218 89.7619 264.196 71.5774 327.932 88.6555L329.959 89.1986C411.577 112.001 484.679 191.835 459.21 314.161C467.298 265.945 459.607 221.238 436.332 184.083C413.531 147.559 376.107 119.668 333.662 107.812L331.635 107.269C297.852 98.2169 264.057 100.024 235.521 111.93C203.904 125.425 181.585 151.067 171.045 185.9C165.36 204.412 158.155 225.896 150.303 248.897L150.3 248.905C119.115 340.966 76.3862 467.105 77.1154 585.095C77.6686 649.694 91.209 705.463 117.648 750.928C148.539 804.104 197.843 845.316 264.449 873.302C264.47 873.307 264.539 873.33 264.657 873.368C264.734 873.393 264.831 873.425 264.949 873.464C270.596 875.322 322.783 892.492 385.053 898.859C423.332 902.839 458.073 902.01 488.088 896.293C525.48 889.173 555.475 874.52 577.505 852.663C598.557 831.751 603.08 804.961 592.385 768.301C582.812 735.836 561.735 698.421 539.267 658.539L538.105 656.477L537.969 656.235C489.13 569.745 428.915 463.107 451.326 350.019C443.269 398.57 448.71 449.959 467.62 506.033C486.635 562.245 516.877 615.739 543.619 663.043L543.619 663.044L543.62 663.044L543.62 663.045L543.621 663.045L544.089 663.873C568.204 706.302 590.714 746.611 601.051 781.003C612.345 819.031 607.58 846.721 585.837 868.413C534.124 919.973 447.819 923.16 384.641 916.611C345.912 912.51 310.641 904.507 287.444 898.292C279.062 896.046 272.208 894.044 267.222 892.588L267.221 892.588L267.221 892.588L267.221 892.588L267.22 892.588L267.219 892.588L267.219 892.587L267.218 892.587L267.217 892.587C261.755 890.992 258.535 890.052 258.001 890.161ZM292.437 880.56C314.733 886.534 348.202 894.053 385.295 897.958C445.649 904.233 527.823 901.147 577.236 851.866C597.942 831.345 602.404 804.78 591.814 768.631C582.016 735.832 560.434 697.461 537.473 657.032L536.984 656.165L536.984 656.164L536.984 656.164C511.563 611.149 482.654 559.957 464.616 506.435C444.754 447.721 440.613 394.73 451.815 344.302C451.807 344.336 451.798 344.37 451.789 344.405C422.576 457.031 482.825 563.696 531.325 649.35L532.493 651.426C553.808 689.31 573.889 725.001 582.923 755.869C593.139 790.711 588.753 816.089 568.904 836.116C521.732 883.341 443.238 886.207 385.481 880.145C325.908 874.112 275.83 857.369 271.2 855.821C270.99 855.751 270.873 855.712 270.854 855.707C207.504 829.077 160.541 789.94 131.36 739.395C106.3 695.989 93.2215 643 93.0098 581.63C92.4087 469.464 133 349.507 162.753 261.889C163.851 258.599 164.942 255.34 166.02 252.118L166.022 252.111C172.133 233.848 177.85 216.761 182.425 201.984C192.543 168.728 213.764 144.482 243.788 131.526C270.445 120.323 302.769 118.605 334.75 127.174L336.777 127.717C377.195 139.03 412.834 165.476 434.42 200.227C458.398 238.639 465.009 285.373 453.851 335.817C453.873 335.732 453.895 335.646 453.917 335.56C486.027 212.124 413.971 131.503 333.645 108.773L331.618 108.23C270.81 91.9367 195.693 109.225 172.456 186.036C166.832 204.323 159.567 226.033 151.714 249.033L151.712 249.041C120.526 341.103 77.7978 467.242 78.3622 584.946C79.2745 725.68 140.245 819.744 264.916 872.461C264.979 872.478 265.241 872.563 265.69 872.708L265.692 872.708C268.429 873.593 278.124 876.724 292.437 880.56ZM385.948 879.304C350.717 875.658 318.885 868.335 297.715 862.663C288.191 860.111 280.889 857.898 276.432 856.547L276.432 856.547C273.406 855.629 271.692 855.11 271.485 855.152C152.878 805.026 94.9965 715.651 94.1359 581.932C93.5348 469.766 134.065 350.034 163.819 262.416C164.412 260.639 165.003 258.871 165.591 257.113C166.077 255.659 166.561 254.212 167.043 252.773L167.084 252.649L167.087 252.641C173.198 234.377 178.915 217.289 183.491 202.511C205.702 129.528 277.018 112.912 334.898 128.421L336.7 128.903C412.279 150.108 479.787 225.142 452.173 339.97C461.081 294.139 454.258 251.672 432.448 216.596C412.016 183.844 378.223 158.617 339.832 147.847L338.03 147.364C307.626 139.217 276.835 140.622 251.605 151.001C222.948 163.358 202.99 186.494 193.355 217.948C188.827 233.189 182.766 251.091 176.396 269.907L176.393 269.915L175.5 272.551L174.753 274.76L174.174 276.473C146.188 359.332 107.986 472.435 108.679 578.104C109 636.365 121.105 686.68 145.071 727.862C172.769 775.837 217.331 813.123 277.423 838.398C277.443 838.403 277.555 838.44 277.757 838.506C282.177 839.962 329.548 855.564 386.134 861.492C440.617 867.159 515.206 864.454 560.017 819.735C578.829 800.878 583.138 776.687 573.4 743.662C565.083 715.003 546.559 682.051 526.863 647.012L526.863 647.012L526.844 646.98L525.677 644.903C525.26 644.161 524.842 643.417 524.424 642.673C479.31 562.909 423.304 463.642 447.805 358.793C438.825 404.907 443.274 453.637 461.326 507.002C478.732 558.254 506.188 607.13 530.633 650.13C575.67 729.787 611.205 792.655 568.349 835.485C521.462 882.545 443.254 885.245 385.948 879.304ZM302.707 844.931C322.752 850.302 353.007 857.202 386.376 860.591C440.633 866.198 514.937 863.658 559.462 819.103C600.018 778.554 566.296 718.827 523.507 643.393C481.23 568.652 429.458 476.907 442.819 379.362C426.365 474.07 476.78 563.538 517.748 636.056C537.412 670.774 555.921 703.494 564.103 731.515C573.362 762.721 569.355 785.786 551.295 803.638C509.07 845.913 438.387 848.457 386.727 843.063C330.833 837.259 284.157 821.373 283.767 821.027C226.933 797.108 184.936 761.958 158.497 716.492C135.85 677.595 124.267 629.834 124.003 574.968C123.495 474.535 159.766 367.421 186.344 288.931L186.632 288.081C193.294 268.623 199.489 250.007 204.164 234.362C213.151 204.424 232.237 182.743 259.24 171.151C283.449 160.981 312.317 159.544 341.145 167.268L342.947 167.751C379.311 177.977 411.093 201.701 430.701 233.025C449.911 263.799 456.736 300.507 450.99 340.069C471.603 236.257 409.124 168.547 339.53 148.973L337.728 148.49C283.001 133.826 215.32 149.486 194.36 218.7C189.988 233.416 184.235 250.435 178.074 268.66L178.036 268.772C177.474 270.432 176.91 272.103 176.343 273.782L175.758 275.512L175.145 277.329C147.162 360.176 109.052 473.007 109.745 578.631C110.494 705.562 165.512 790.307 277.829 837.782C278.036 837.74 279.688 838.243 282.585 839.127L282.586 839.127L282.587 839.127C286.829 840.421 293.743 842.529 302.707 844.931ZM386.804 841.877C355.357 838.52 326.679 832.042 307.76 826.973C293.572 823.172 284.684 820.307 284.519 820.022C178.042 775.077 126.111 695.021 125.414 575.105C124.846 474.897 161.117 367.784 187.695 289.294L187.983 288.443C189.805 282.918 191.626 277.471 193.406 272.145C197.915 258.654 202.164 245.941 205.515 234.724C225.224 169.278 289.269 154.575 341.068 168.455L342.645 168.877C408.389 187.42 467.524 251.402 447.924 349.837C453.276 312.525 446.788 278.129 428.789 249.169C410.396 219.618 380.174 197.279 346.062 187.656L344.485 187.233C317.234 179.931 289.838 181.28 267.162 191.136C241.811 201.965 223.703 222.7 215.199 250.837C212.028 261.382 207.995 273.302 203.71 285.964C202.004 291.006 200.259 296.165 198.512 301.402C173.34 375.523 138.945 476.864 139.551 571.893C139.864 623.875 150.759 668.796 172.088 705.409C197.043 748.305 236.699 781.38 290.276 803.943C290.297 803.948 290.41 803.986 290.611 804.053L290.617 804.055C294.834 805.452 337.146 819.477 387.32 824.635C436.157 829.755 502.71 827.311 542.634 787.317C579.505 750.608 549.246 696.877 510.908 629.154C472.036 560.573 424.019 475.855 440.357 386.039C427.395 478.485 476.495 565.389 516.601 636.375L516.666 636.49C557.147 707.926 588.83 764.452 550.575 802.721C508.411 844.77 438.463 847.27 386.804 841.877ZM312.979 809.302C330.771 814.069 357.813 820.349 387.682 823.284C436.068 828.283 502.111 825.944 541.914 786.4C577.921 750.478 548.324 697.932 510.722 631.171L509.991 629.874C471.547 562.053 424.427 478.628 438.742 389.917C421.265 475.677 466.972 556.728 504.067 622.252L504.129 622.36C540.129 686.034 568.583 736.361 533.972 770.995C496.409 808.484 433.986 810.828 388.198 806.042C340.984 801.208 301.449 788.14 297.407 786.803L297.405 786.803L297.404 786.803L297.265 786.757L297.175 786.727C297.116 786.708 297.081 786.696 297.07 786.693C246.751 765.486 209.496 734.261 185.964 694.161C166.015 659.608 155.582 617.466 155.385 568.652C154.909 479.839 186.942 384.901 210.369 315.468L210.676 314.559C211.036 313.494 211.394 312.433 211.752 311.376L212.453 309.302L212.483 309.215L212.483 309.214C217.655 293.924 222.536 279.492 226.293 267.086C244.026 208.111 301.431 194.767 347.825 207.198L349.402 207.62C381.487 216.7 409.923 237.596 427.102 265.373C444.762 293.662 450.521 327.377 444.463 363.825C465.673 268.7 409.002 206.675 346.15 189.127L344.574 188.705C295.702 175.61 235.458 189.641 216.775 251.259C212.342 266.003 206.448 283.493 200.088 301.825C174.917 375.946 140.521 477.286 141.188 572.09C141.773 685.217 190.841 760.643 291.028 802.937C291.142 802.871 292.515 803.297 294.986 804.064C298.693 805.213 304.871 807.129 312.979 809.302ZM388.11 804.57C360.163 801.668 334.697 795.81 318.031 791.344C307.629 788.557 300.329 786.261 297.991 785.525L297.99 785.525L297.989 785.525L297.987 785.524C297.543 785.384 297.279 785.301 297.207 785.282C203.309 745.639 157.165 674.617 156.632 568.504C156.32 480.024 188.259 385.365 211.682 315.944L211.682 315.944L212.027 314.921C212.301 314.11 212.575 313.301 212.848 312.493L213.834 309.577L213.835 309.576C219.006 294.285 223.887 279.854 227.644 267.448C245.076 209.599 301.684 196.524 347.403 208.775L348.754 209.137C406.763 225.373 458.922 281.588 442.078 368.05C446.394 335.937 440.576 306.322 424.965 281.456C408.941 255.679 382.35 236.002 352.292 227.465L350.941 227.103C307.474 215.456 253.93 227.903 237.508 282.885C233.558 295.827 228.493 311.126 222.962 327.265L222.432 328.831C200.456 393.759 170.544 482.135 171.115 564.901C171.421 610.606 181.106 650.134 199.736 682.403C221.498 720.097 256.413 749.247 303.474 769.099C303.639 769.384 342.328 782.647 388.627 787.329C431.366 791.78 489.883 789.597 524.921 754.328C557.233 721.972 530.752 675.068 497.056 615.386L497.002 615.29C463.035 555.213 421.355 481.484 434.837 403.264C424.231 484.582 467.329 560.71 502.64 623.076L503.08 623.856C538.572 686.641 566.601 736.224 532.802 769.958C495.585 807.056 433.673 809.295 388.11 804.57ZM523.915 753.576C471.164 806.307 364.914 784.837 322.123 773.371C312.942 770.911 306.651 768.891 304.536 768.212L304.535 768.212L304.534 768.212L304.532 768.211C304.415 768.174 304.311 768.14 304.22 768.111C304.111 768.076 304.02 768.047 303.949 768.025C303.864 767.998 303.806 767.98 303.776 767.972C215.778 730.634 172.662 664.527 172.241 565.203C171.83 482.07 201.935 393.117 223.955 328.052L223.967 328.017C229.559 311.653 234.624 296.354 238.574 283.412C254.98 229.391 307.727 217.213 350.518 228.679L351.869 229.041C404.598 243.845 452.209 294.184 440.123 371.492C442.415 344.373 436.767 319.272 423.444 297.946C408.408 273.881 383.603 255.648 355.572 247.655L354.221 247.292C313.682 236.43 263.549 247.86 248.093 299.238C245.556 308.049 242.222 317.926 238.665 328.464C237.336 332.4 235.976 336.427 234.616 340.526C214.087 400.925 185.991 484.159 186.438 561.765C186.688 604.075 195.625 640.989 213.162 671.034C233.44 706.158 266.015 733.232 309.818 751.728C309.832 751.732 309.859 751.74 309.899 751.753C309.979 751.778 310.11 751.82 310.291 751.879C319.413 754.828 455.441 798.811 516.259 738.006C546.574 707.748 521.86 663.952 490.387 608.448C460.372 555.273 423.745 490.381 431.23 421.4C426.314 493.277 464.463 560.751 495.799 616.174L495.859 616.28C529.222 675.386 555.535 722.001 523.915 753.576ZM515.089 736.969C465.962 786.084 367.265 766.155 327.401 755.474C318.829 753.177 313.115 751.316 311.143 750.673C310.732 750.539 310.483 750.458 310.406 750.437C228.637 715.975 188.67 654.333 188.075 561.962C187.568 484.582 215.603 401.572 236.132 341.173C236.714 339.421 237.293 337.678 237.868 335.947C242.243 322.785 246.391 310.302 249.669 299.661C264.824 249.409 313.995 237.962 353.859 248.644L355.21 249.006C405.793 263.257 451.43 312.682 435.974 388.706C439.625 361.176 434.716 335.692 421.246 314.254C407.26 291.678 384.526 274.724 358.461 267.499L357.335 267.197C319.724 257.119 273.392 267.878 259.126 315.713C256.086 325.479 252.237 336.882 248.165 348.943L248.145 349.002L248.008 349.407C247.487 350.952 246.962 352.508 246.434 354.072C227.338 410.027 201.217 486.791 201.701 558.855C201.999 598.281 210.249 632.355 226.466 660.115C245.322 692.445 275.495 717.668 316.041 734.809C316.082 734.82 316.242 734.871 316.515 734.96C325.285 737.793 450.96 778.393 507.251 722.075C535.266 694.097 512.365 653.442 483.2 601.936L482.916 601.432C453.67 549.528 417.834 485.931 429.893 418.323C420.862 488.648 458.15 554.699 488.67 608.761L488.959 609.272L489.025 609.389C519.912 664.207 544.406 707.677 515.089 736.969ZM332.679 737.577C369.615 747.474 460.985 765.922 506.202 720.587C533.299 693.329 510.728 653.245 481.832 602.535C454.6 554.502 421.662 496.081 426.356 433.559C418.931 492.902 450.535 548.738 476.428 594.486L476.645 594.869L476.79 595.125C503.414 642.228 524.603 679.713 498.65 705.528C446.797 757.288 330.699 719.86 323.059 717.398L323.055 717.396C322.832 717.324 322.703 717.283 322.671 717.274C253.257 688.053 217.922 633.446 217.596 555.389C217.242 489.48 240.984 419.273 258.4 367.77L258.659 367.004C263.06 354.182 267.055 341.976 270.282 331.737C283.296 287.67 325.993 277.869 360.451 287.102L361.577 287.403C385.614 294.086 406.502 309.821 419.334 330.398C430.868 348.858 435.593 370.466 433.529 393.92C445.272 326.02 404.034 281.855 358.039 269.075C320.999 258.668 274.788 268.976 260.538 315.85C257.07 326.99 252.774 340.322 247.846 354.209L247.259 355.951C228.438 411.809 202.858 487.727 203.233 558.541C203.777 643.897 240.821 701.136 316.524 733.007C316.666 733.045 317.044 733.157 317.641 733.334L317.646 733.335L317.647 733.336L317.648 733.336L317.65 733.337C319.898 734.002 325.219 735.578 332.679 737.577ZM497.54 704.265C455.722 745.925 371.905 729.018 337.897 719.906C330.737 717.987 325.752 716.33 323.91 715.718L323.909 715.718C323.493 715.579 323.237 715.495 323.154 715.472C253.575 685.966 219.559 633.643 219.128 555.076C218.654 489.615 242.395 419.411 259.811 367.908L260.071 367.141C260.425 366.109 260.778 365.081 261.129 364.059L261.13 364.058L261.13 364.058C265.144 352.376 268.934 341.344 271.693 331.874C284.571 289.219 326.246 279.626 360.028 288.678L361.154 288.98C403.86 301.112 442.284 342.283 430.391 405.572C435.79 352.46 401.947 317.723 364.692 307.308L363.791 307.066C332.261 298.618 293.14 307.688 280.701 347.805C278.835 354.161 276.439 361.257 273.885 368.82L273.885 368.822C272.662 372.444 271.403 376.173 270.149 379.979C254.202 426.881 232.527 491.559 232.754 551.968C233.194 623.296 265.441 673.214 328.79 699.844C328.823 699.853 328.954 699.895 329.178 699.967C336.469 702.314 442.212 736.359 489.538 689.086C513.192 665.549 493.977 631.486 469.658 588.377L469.519 588.132L468.94 587.099C444.897 544.23 415.473 491.768 424.469 436.238C418.464 495.094 449.564 550.375 475.217 595.693L475.363 595.951C501.657 642.481 522.516 679.394 497.54 704.265ZM342.95 701.948C373.805 710.216 450.52 725.702 488.489 687.598C511.166 665.005 492.279 631.514 468.291 588.978L468.152 588.731C445.491 548.626 418.189 500.233 421.481 448.465C415.605 497.296 441.54 543.359 462.964 581.065C484.276 618.639 502.621 651.073 481.162 672.6C438.234 715.514 342.191 684.483 335.957 682.469L335.765 682.407C335.728 682.395 335.7 682.386 335.679 682.38C335.662 682.375 335.651 682.371 335.644 682.369C278.42 658.105 249.202 613.102 248.649 548.502C248.324 493.861 268.084 435.429 282.659 392.746C283.045 391.598 283.429 390.459 283.809 389.328C286.954 379.984 289.895 371.245 292.141 363.665C302.983 327.706 338.304 319.307 366.906 326.971L367.807 327.212C400.963 336.521 431.099 366.847 427.711 413.297C437.463 356.609 402.768 319.655 364.269 308.884C333.31 300.106 294.535 308.786 282.788 348.123C280.922 354.478 278.526 361.574 275.973 369.138L275.972 369.14C274.749 372.762 273.49 376.491 272.236 380.297C256.289 427.199 234.449 491.592 234.737 551.775C235.117 623.328 266.209 671.247 329.558 697.877C330.173 698.283 335.068 699.836 342.95 701.948ZM479.542 671.442C445.257 705.705 376.095 691.76 348.168 684.277C342.651 682.798 338.753 681.612 336.925 681.056L336.924 681.056C336.365 680.886 336 680.775 335.842 680.733C205.271 625.711 254.378 480.276 283.89 393.559C284.276 392.409 284.66 391.267 285.042 390.134L285.043 390.13C288.186 380.79 291.126 372.055 293.372 364.477C303.972 329.419 338.436 321.515 366.138 328.938L367.038 329.179C400.805 338.67 431.437 370.471 424.937 419.384C425.592 380.47 399.563 355.199 371.147 347.177L370.246 346.936C344.572 340.056 312.662 347.438 303.236 379.914C302.521 382.066 301.777 384.329 301.002 386.685L301 386.692L300.986 386.734L300.986 386.735C299.052 392.615 296.929 399.072 294.599 405.842C281.681 444.141 264.061 496.388 264.258 545.202C264.474 602.952 290.604 643.265 341.989 664.999C342.015 665.006 342.119 665.04 342.297 665.097L342.3 665.098L342.302 665.099C348.19 666.999 433.875 694.644 472.276 656.218C491.659 637.031 475.128 607.739 456.124 574.163C438.321 542.766 416.881 504.835 418.48 464.272C418.938 507.662 441.723 548.083 460.748 581.834L460.965 582.219C482.772 620.65 499.962 651.085 479.542 671.442ZM353.447 666.38C378.446 673.078 440.28 685.543 470.941 654.895C489.121 636.593 473.909 609.585 454.41 575.152L453.91 574.261C435.684 541.842 413.763 502.85 416.565 461.048C410.79 500.219 431.709 537.197 448.792 567.395L448.937 567.651C465.798 597.515 480.186 623.095 463.268 640.287C429.391 674.229 354.048 649.959 348.525 648.179C348.346 648.122 348.24 648.088 348.212 648.08C302.892 628.936 279.85 593.313 279.521 542.291C279.228 499.421 294.864 453.396 306.278 419.801L306.278 419.801L306.418 419.389C307.563 415.867 308.716 412.474 309.818 409.228L309.819 409.227C311.358 404.696 312.799 400.454 313.985 396.553C322.506 367.456 350.554 360.971 373.301 367.066L373.977 367.247C399.864 374.602 423.436 398.059 421.362 434.047C429.685 387.845 401.716 357.757 370.439 348.919L369.764 348.738C344.99 342.099 314.387 349.107 305.038 380.396C302.864 387.648 299.895 396.227 296.838 405.062L296.401 406.325C270.039 483.989 226.117 613.675 342.757 663.033C342.922 663.318 346.915 664.63 353.447 666.38ZM461.994 638.738C435.017 665.546 380.736 654.622 358.664 648.708C356.38 648.096 354.439 647.536 352.92 647.098C350.695 646.457 349.375 646.076 349.205 646.174C246.491 602.979 285.146 488.799 308.306 420.387L308.384 420.157C311.353 411.78 313.976 403.793 316.012 397.096C324.456 369.185 351.648 363.195 373.659 369.334C401.276 376.964 425.954 403.739 418.347 444.716C419.859 413.646 399.629 393.399 377.092 387.151L376.416 386.97C356.822 381.72 332.41 387.248 324.975 412.292C323.535 416.943 321.794 422.136 319.901 427.785L319.9 427.786C319.435 429.175 318.96 430.592 318.478 432.034C308.485 461.22 295.145 501.096 295.25 538.54C295.468 582.772 315.646 613.767 354.902 630.32C357.769 631.329 424.412 653.773 454.728 623.515C469.483 608.75 457.081 586.708 442.636 561.035L442.382 560.584C427.736 534.915 409.863 503.385 414.048 470.041C412.301 506.457 431.53 540.566 447.449 568.7C464.475 598.85 477.873 622.717 461.994 638.738ZM363.717 630.751C382.636 635.82 429.814 645.323 452.942 622.071C466.746 608.39 454.936 587.604 440.158 561.677L440.018 561.428C427.065 538.466 411.653 511.144 411.098 481.767C409.586 508.121 423.583 533.053 435.107 553.58L435.107 553.58L435.256 553.846C447.726 575.775 458.382 594.562 445.555 607.298C421.17 631.668 369.184 615.644 361.764 613.357L361.76 613.356C361.358 613.232 361.088 613.149 360.96 613.115C284.191 580.716 312.934 495.966 330.132 445.295C331.843 440.351 333.332 435.656 334.624 431.586L334.626 431.579L334.627 431.576L334.636 431.547C334.834 430.923 335.027 430.313 335.216 429.72C335.332 429.356 335.446 428.997 335.559 428.645C342.253 407.266 362.865 402.409 379.757 406.935L380.207 407.055C398.361 412.119 414.907 428.081 415.231 452.381C420.897 418.04 399.688 395.604 376.323 389.118L375.648 388.937C356.955 383.928 333.789 389.307 326.491 412.939C324.966 417.865 323.06 423.562 321.023 429.65L321.023 429.651L321.007 429.699C320.653 430.757 320.294 431.827 319.934 432.907L319.856 433.138C299.905 492.273 266.601 590.987 355.159 628.458L363.717 630.751ZM444.281 605.749C424.552 625.326 384.926 617.364 368.935 613.079C365.655 612.2 363.3 611.411 362.4 611.11L362.4 611.109L362.395 611.108C362.305 611.078 362.229 611.052 362.169 611.032C362.136 611.021 362.107 611.012 362.083 611.004C362.051 610.994 362.028 610.987 362.014 610.983C287.211 579.353 315.428 495.668 332.384 445.899C334.177 440.717 335.727 435.81 337.096 431.475L337.354 430.658L337.603 429.871L337.729 429.472L337.871 429.024C343.978 408.935 363.734 404.573 379.664 409.082C399.742 414.692 417.643 434.131 412.114 463.781C411.469 444.616 398.462 431.213 383.322 426.96L382.872 426.839C369.133 423.158 352.097 427.283 346.714 444.669C346.043 447.172 345.132 449.886 344.154 452.801L344.153 452.801L344.153 452.803C343.546 454.61 342.914 456.494 342.297 458.452L342.294 458.461C328.245 500.079 304.86 569.358 367.754 595.865C367.822 595.884 367.94 595.919 368.104 595.969C368.194 595.997 368.297 596.029 368.413 596.064C374.492 597.94 417.098 611.082 437.119 591.037C447.645 580.581 438.802 564.935 428.641 547.005C419.083 530.162 407.448 509.473 408.89 487.727C409.525 512.5 422.561 535.551 433.543 554.835L433.765 555.232C446.069 577.196 455.715 594.416 444.281 605.749ZM435.394 589.368C419.575 605.164 387.276 598.682 374.214 595.182L374.212 595.182C370.835 594.277 368.808 593.734 368.643 593.448C307.711 567.707 330.742 499.772 344.549 459.056C346.162 453.936 347.655 449.267 348.966 445.273C353.762 429.178 369.431 425.652 382.268 429.092L382.719 429.212C399.775 434.024 414.984 451.134 408.208 477.32C401.515 503.182 414.971 527.267 425.946 546.913C426.179 547.33 426.411 547.745 426.642 548.159L427.233 549.22C436.893 566.584 444.473 580.207 435.394 589.368Z" fill="url(#paint0_linear_15_588)"/>
<defs>
<linearGradient id="paint0_linear_15_588" x1="722.474" y1="604.41" x2="20.6138" y2="416.347" gradientUnits="userSpaceOnUse">
<stop stop-color="#04DA00" stop-opacity="0"/>
<stop offset="0.3125" stop-color="#FF0469"/>
<stop offset="0.703125" stop-color="#109BFF"/>
<stop offset="1" stop-color="#FFD110" stop-opacity="0"/>
</linearGradient>
</defs>
</svg>
