<svg width="341" height="996" viewBox="0 0 341 996" fill="none" xmlns="http://www.w3.org/2000/svg">
<path opacity="0.33" fill-rule="evenodd" clip-rule="evenodd" d="M25.6738 988.599L23.1964 987.936C-2.41786 980.831 -26.3144 969.117 -48.1635 953.366C-71.0179 936.862 -89.9628 916.578 -104.443 893.146C-137.542 840.103 -145.439 774.984 -127.061 704.594C-88.835 557.442 -167.23 418.392 -230.453 306.252L-231.025 305.238C-259.756 254.813 -286.778 207.019 -298.76 166.152C-312.192 120.792 -306.43 87.5761 -280.37 61.4883C-253.048 34.2906 -215.808 16.0263 -169.058 7.31068C-131.892 0.130627 -88.8905 -0.899501 -40.955 3.97891C36.3055 11.8707 101.047 33.3164 108.381 35.746C108.787 35.8802 109.017 35.9564 109.064 35.969C151.802 53.9382 189.203 76.512 220.035 102.878C248.918 127.514 273.094 156.2 291.56 188.184L291.561 188.186C292.715 190.184 293.868 192.182 294.797 194.12C259.113 130.005 200.198 75.1133 108.883 36.6447C108.818 36.6274 108.537 36.5356 108.05 36.3762C100.005 33.7464 35.6899 12.7223 -40.9108 4.71491C-116.058 -3.10972 -218.433 0.598178 -280.041 62.0595C-305.754 87.7571 -311.742 120.913 -298.249 166.048C-286.042 206.975 -259.245 254.709 -230.739 305.073C-198.771 361.434 -162.802 425.385 -139.948 492.339C-115.119 565.353 -109.948 631.581 -124.105 694.402C-88.2752 553.367 -163.599 420.046 -224.261 312.674L-224.261 312.674L-224.47 312.305C-225.259 310.9 -226.047 309.497 -226.834 308.097L-226.935 307.918L-226.962 307.869C-253.339 260.925 -278.211 216.66 -289.523 178.524C-302.191 134.818 -296.506 102.788 -271.709 77.8099C-245.424 51.7825 -209.552 34.1173 -164.845 25.8198C-128.986 19.0137 -87.6817 18.0116 -41.6082 22.6324C32.9748 30.4142 95.7644 51.067 101.993 53.1156C102.294 53.2148 102.463 53.2704 102.494 53.2788C143.491 70.54 179.436 92.2409 209.099 117.569C236.811 141.168 260.042 168.876 277.909 199.492C284.173 210.344 289.867 221.525 294.93 233.261C262.742 159.703 203.177 96.4296 102.313 53.9544C102.248 53.937 101.97 53.8463 101.489 53.6895L101.488 53.6892L101.488 53.689C93.6423 51.1311 31.8921 30.9979 -41.5641 23.3684C-113.662 15.8779 -212.133 19.4252 -271.154 78.4414C-295.89 103.194 -301.516 134.999 -288.726 178.255C-277.059 217.59 -251.19 263.385 -223.838 311.75C-193.189 365.827 -158.478 427.268 -136.658 491.772C-113.981 558.808 -108.303 619.905 -119.626 677.747C-89.9104 545.255 -160.677 420.117 -217.855 319.146C-244.218 272.495 -268.932 228.698 -280.286 190.896C-292.701 148.947 -287.378 118.268 -263.393 94.5212C-238.311 69.3784 -203.867 52.5376 -160.917 44.4934C-126.591 38.0008 -86.7585 37.0871 -42.8327 41.6153C28.7921 49.0732 88.8045 68.77 94.8575 70.7567C95.1552 70.8544 95.3224 70.9093 95.354 70.9178C109.106 76.7403 122.224 83.0472 134.696 89.8326C122.44 83.2343 109.533 77.0667 95.9693 71.324C95.863 71.2956 95.4822 71.1756 94.8406 70.9734C91.4051 69.8911 80.4901 66.4522 64.1697 62.0792C38.7203 55.2601 0.296784 46.4128 -42.2174 42.0215C-111.267 34.865 -205.607 38.3121 -262.267 94.8229C-286.026 118.63 -291.29 149.084 -278.979 190.522C-268.199 227.078 -244.464 269.371 -219.233 314.328L-219.233 314.328L-219.233 314.329L-219.179 314.424C-218.378 315.851 -217.576 317.28 -216.773 318.712L-215.011 321.842L-215.011 321.843L-215.011 321.843C-186.175 373.078 -153.794 430.614 -133.143 491.265C-111.052 556.384 -105.908 615.345 -117.115 671.453C-87.347 543.792 -155.569 423.047 -210.729 325.884L-212.04 323.543L-213.186 321.499C-237.271 278.53 -260.01 237.961 -270.252 202.999C-282.189 162.868 -277.003 133.601 -253.936 110.573C-229.891 86.601 -196.814 70.3593 -155.622 62.5683C-122.828 56.3893 -84.6325 55.2784 -42.4039 59.8346C26.5643 66.9645 84.4956 86.2516 89.4637 87.9056C89.6729 87.9753 89.7882 88.0137 89.8065 88.0185C162.643 118.88 216.913 164.078 250.832 222.169C279.909 272.204 294.885 333.426 295.22 404.243C295.98 533.832 249.029 672.12 214.694 773.235C213.611 776.471 212.534 779.681 211.468 782.861C204.211 804.496 197.422 824.738 192.097 842.253C180.427 880.403 155.971 908.611 121.334 923.469C90.2887 936.634 53.0989 938.497 16.1635 928.6L13.9113 927.997C-32.5273 914.829 -73.6436 884.501 -98.5872 844.264C-125.212 801.456 -133.428 749.92 -122.408 694.093C-154.654 831.828 -73.2812 921.792 17.4326 947.286L19.6848 947.889C72.256 961.976 134.11 954.187 172.887 911.834C160.708 925.359 145.747 936.021 128.294 943.438C96.8423 957.218 58.0156 958.884 19.2785 948.505L16.8012 947.841C-31.8897 934.07 -74.7915 902.298 -100.785 860.573C-128.885 815.538 -137.133 761.132 -125.393 702.456C-159.556 846.532 -74.5459 940.522 20.3226 967.13L22.5748 967.734C95.3195 987.226 185.37 966.456 213.161 874.45C219.039 854.923 226.726 832.23 234.908 808.077L234.914 808.058L234.916 808.051L234.942 807.975C235.921 805.086 236.907 802.175 237.898 799.247C273.635 694.095 320.397 555.735 325.571 423.553C320.631 556.058 273.814 694.494 238.957 797.567L238.956 797.569L238.348 799.367C237.661 801.4 236.975 803.423 236.293 805.437L235.367 808.172L235.367 808.173L235.366 808.174C227.181 832.336 219.491 855.037 213.611 874.571C200.975 916.325 174.444 946.873 136.622 962.808C103.231 977.517 62.8722 979.497 22.5586 968.695L20.0812 968.031C-30.6365 953.717 -75.3239 920.501 -102.531 877.002C-132.814 828.329 -141.112 769.045 -126.69 705.02C-166.523 858.75 -76.9261 959.178 23.3774 987.26L25.8549 987.924C101.527 1008.2 195.213 986.474 224.255 890.699C231.087 867.908 240.251 840.914 250.062 812.403L250.431 811.315L250.431 811.314C286.392 704.996 333.23 566.522 340.889 432.895C333.456 567.214 286.59 706.236 251.356 810.751L250.738 812.584C249.423 816.504 248.115 820.395 246.82 824.249C238.676 848.482 231.019 871.268 224.931 890.88C211.872 934.211 184.079 965.869 144.768 982.854C109.845 997.877 67.564 999.824 25.6738 988.599ZM326.02 394.871C326.103 404.389 325.947 413.955 325.571 423.553C325.896 414.847 326.04 406.165 325.987 397.521C326.002 396.639 326.013 395.755 326.02 394.871ZM325.591 377.38C325.828 383.19 325.969 389.022 326.02 394.871C326.066 389.015 325.937 383.135 325.591 377.38ZM202.456 858.546C195.845 880.327 185.608 897.94 172.887 911.834C185.99 897.283 195.872 879.417 202.17 858.711C208.519 837.721 216.854 812.919 225.837 786.601C261.605 681.042 310.471 536.507 309.807 401.151C309.355 327.165 293.857 263.389 263.461 211.07C234.506 161.187 191.235 120.593 134.696 89.8326C251.528 152.736 309.067 254.794 310.032 401.211C310.756 536.343 261.89 680.877 226.123 786.436C217.14 812.754 208.804 837.556 202.456 858.546ZM-42.6453 60.7355C-1.99323 64.8692 34.8538 73.294 59.1772 79.8114C71.0677 82.9975 79.9639 85.7815 84.8686 87.3164C87.5816 88.1654 89.0733 88.6322 89.175 88.5735C226.201 146.532 293.183 249.69 294.034 404.166C294.629 533.47 247.903 671.818 213.568 772.934C213.135 774.226 212.702 775.515 212.27 776.8L211.297 779.7L211.121 780.224L211.12 780.226C203.611 802.59 196.482 823.823 190.971 841.951C165.457 926.36 82.8436 945.502 16.1796 927.639L14.1527 927.096C-71.4535 902.989 -148.107 819.302 -121.042 690.916C-129.694 741.704 -121.478 788.707 -97.1257 828C-73.111 866.298 -33.901 895.633 10.5711 908.032L12.8232 908.635C48.1821 918.11 83.8999 916.335 112.902 903.588C146.112 889.554 169.469 862.743 180.492 826.108C185.578 809.469 192.069 790.301 199.021 769.769C200.085 766.624 201.161 763.448 202.244 760.244L202.579 759.253L202.579 759.252C235.168 662.832 279.73 530.986 279.1 407.648C279.04 399.582 278.783 391.643 278.331 383.833C271.975 263.693 220.403 178.306 121.637 124.247C109.37 117.449 96.3971 111.174 82.7266 105.433C82.6933 105.424 82.523 105.368 82.2211 105.268C76.3888 103.345 21.4301 85.2217 -43.793 78.5322C-84.1596 74.2336 -120.372 75.1516 -151.92 81.1819C-191.294 88.4945 -222.718 103.972 -245.785 126.999C-267.589 148.917 -272.699 176.997 -261.241 215.311C-251.133 249.359 -228.913 288.755 -205.297 330.627L-204.113 332.726C-152.651 423.445 -89.2992 535.367 -112.92 654.172C-104.358 603.22 -109.929 549.423 -129.853 490.699C-149.953 431.483 -181.696 375.182 -209.872 325.389L-211.027 323.344C-235.805 279.458 -259.028 238.326 -269.456 202.729C-281.228 162.884 -276.102 133.842 -253.381 111.205C-199.307 57.1392 -108.872 53.8527 -42.6453 60.7355ZM83.3419 105.839C96.8132 111.512 109.577 117.646 121.637 124.247C172.064 152.191 210.57 188.969 236.61 233.807C261.05 275.85 275.001 326.31 278.331 383.833C278.735 391.461 278.956 399.229 278.996 407.137C279.686 530.251 235.124 662.096 202.535 758.516L202.2 759.508C193.82 783.574 186.253 806.409 180.387 825.597C156.125 906.238 77.1466 924.423 13.4105 907.345L11.3836 906.801C-70.2339 883.999 -143.336 804.165 -117.867 681.84C-125.955 730.055 -118.264 774.762 -94.9888 811.917C-72.1884 848.441 -34.7639 876.332 7.6812 888.188L9.70815 888.731C43.4905 897.783 77.2859 895.976 105.822 884.07C137.438 870.575 159.758 844.933 170.298 810.1C175.983 791.588 183.188 770.104 191.04 747.103L191.043 747.095C222.228 655.034 264.957 528.895 264.227 410.905C263.674 346.306 250.134 290.537 223.695 245.072C192.804 191.896 143.5 150.684 76.8934 122.698C76.8804 122.695 76.8477 122.684 76.7955 122.668C76.7655 122.658 76.729 122.646 76.6861 122.632L76.3938 122.536C70.747 120.678 18.56 103.508 -43.7103 97.1415C-81.9896 93.1607 -116.73 93.9905 -146.745 99.7071C-184.137 106.827 -214.133 121.48 -236.162 143.337C-257.214 164.249 -261.737 191.039 -251.042 227.699C-241.469 260.164 -220.392 297.579 -197.924 337.461L-196.762 339.523L-196.626 339.765C-147.788 426.255 -87.5723 532.893 -109.983 645.981C-101.926 597.429 -107.368 546.041 -126.277 489.967C-145.293 433.755 -175.534 380.261 -202.277 332.956L-202.278 332.955L-202.278 332.955L-202.746 332.127C-226.861 289.698 -249.371 249.389 -259.708 214.997C-271.002 176.969 -266.238 149.279 -244.494 127.587C-192.781 76.0265 -106.476 72.8402 -43.2984 79.3889C-4.56879 83.4903 30.7017 91.4927 53.899 97.7084C62.2808 99.9543 69.1345 101.956 74.121 103.412L74.1214 103.412L74.1217 103.412L74.122 103.412L74.1225 103.412C79.586 105.008 82.8078 105.948 83.3419 105.839ZM48.9063 115.441C26.6099 109.466 -6.85893 101.947 -43.9517 98.0424C-104.306 91.7674 -186.48 94.8535 -235.893 144.134C-256.599 164.655 -261.061 191.22 -250.471 227.369C-240.673 260.168 -219.092 298.539 -196.131 338.968L-195.642 339.835L-195.641 339.835C-170.22 384.85 -141.311 436.043 -123.273 489.565C-103.412 548.279 -99.2703 601.271 -110.473 651.699C-110.464 651.664 -110.455 651.63 -110.446 651.595C-81.2333 538.969 -141.482 432.304 -189.982 346.65L-191.15 344.574C-212.465 306.69 -232.546 270.999 -241.58 240.131C-251.796 205.289 -247.41 179.911 -227.561 159.884C-180.389 112.659 -101.895 109.793 -44.1381 115.855C15.4352 121.888 65.5127 138.631 70.143 140.179L70.146 140.18C70.2603 140.218 70.3466 140.247 70.4045 140.266C70.4521 140.282 70.4805 140.291 70.4893 140.293C133.838 166.923 180.802 206.06 209.983 256.605C235.043 300.011 248.121 353 248.333 414.37C248.934 526.536 208.343 646.493 178.59 734.111C177.491 737.401 176.401 740.66 175.323 743.882L175.321 743.889C169.21 762.152 163.493 779.239 158.918 794.016C148.8 827.272 127.579 851.518 97.5549 864.474C70.8974 875.677 38.574 877.395 6.59329 868.826L4.56631 868.283C-35.8519 856.97 -71.4908 830.524 -93.0767 795.773C-117.055 757.361 -123.666 710.627 -112.508 660.182C-112.53 660.268 -112.552 660.354 -112.574 660.44C-144.684 783.876 -72.6282 864.497 7.6974 887.227L9.72432 887.77C70.5326 904.063 145.649 886.775 168.886 809.964C174.511 791.677 181.776 769.967 189.629 746.967L189.631 746.959C220.816 654.897 263.545 528.758 262.981 411.054C262.068 270.32 201.098 176.256 76.4268 123.539C76.3633 123.522 76.1017 123.437 75.6525 123.292L75.6512 123.292C72.9137 122.407 63.2192 119.276 48.9063 115.441ZM-44.6047 116.696C-9.37401 120.342 22.4579 127.665 43.6283 133.337C53.1516 135.889 60.4538 138.102 64.9105 139.453L64.9108 139.453C67.9371 140.371 69.6512 140.89 69.8578 140.848C188.464 190.974 246.346 280.349 247.207 414.068C247.808 526.234 207.278 645.966 177.524 733.584C176.44 736.83 175.364 740.046 174.3 743.227L174.259 743.351L174.256 743.359C168.145 761.623 162.428 778.711 157.852 793.489C135.641 866.472 64.325 883.088 6.44455 867.579L4.64281 867.097C-70.9362 845.892 -138.444 770.858 -110.83 656.03C-119.738 701.861 -112.915 744.328 -91.1048 779.404C-70.6729 812.156 -36.88 837.383 1.51126 848.153L3.31296 848.636C33.7171 856.783 64.5082 855.378 89.7379 844.999C118.394 832.642 138.353 809.506 147.988 778.052C152.516 762.811 158.577 744.91 164.947 726.094L164.95 726.085L165.601 724.163C165.93 723.191 166.26 722.217 166.59 721.24L167.168 719.527C195.155 636.668 233.357 523.565 232.664 417.896C232.343 359.635 220.238 309.32 196.272 268.138C168.574 220.163 124.011 182.877 63.9199 157.602C63.9002 157.597 63.788 157.56 63.5863 157.494C59.1661 156.038 11.7951 140.436 -44.7915 134.508C-99.2744 128.841 -173.863 131.546 -218.674 176.265C-237.486 195.122 -241.795 219.313 -232.058 252.338C-223.74 280.997 -205.216 313.949 -185.52 348.988L-185.502 349.019L-184.226 351.29L-183.081 353.327C-137.967 433.091 -81.9612 532.358 -106.463 637.207C-97.4826 591.093 -101.931 542.363 -119.983 488.998C-137.389 437.746 -164.845 388.87 -189.29 345.87C-234.327 266.213 -269.862 203.345 -227.006 160.515C-180.119 113.455 -101.911 110.755 -44.6047 116.696ZM38.6354 151.069C18.5912 145.698 -11.6643 138.798 -45.0329 135.409C-99.2906 129.802 -173.594 132.342 -218.119 176.897C-258.675 217.446 -224.953 277.173 -182.164 352.607C-139.888 427.347 -88.1161 519.092 -101.476 616.636C-85.0229 521.928 -135.437 432.461 -176.406 359.944C-196.069 325.226 -214.578 292.506 -222.76 264.485C-232.02 233.279 -228.012 210.214 -209.952 192.362C-167.728 150.087 -97.0441 147.543 -45.3845 152.937C10.5101 158.741 57.1858 174.627 57.5759 174.973C114.41 198.892 156.407 234.042 182.846 279.508C205.493 318.405 217.076 366.166 217.34 421.032C217.848 521.465 181.577 628.579 154.999 707.069L154.999 707.069L154.711 707.919C148.049 727.377 141.854 745.993 137.179 761.638C128.191 791.576 109.106 813.257 82.1024 824.849C57.8942 835.019 29.0255 836.456 0.19791 828.732L-1.60383 828.249C-37.9681 818.023 -69.7503 794.299 -89.3578 762.975C-108.568 732.202 -115.393 695.494 -109.647 655.933C-130.259 759.744 -67.7805 827.453 1.81299 847.027L3.6147 847.51C58.3422 862.174 126.023 846.514 146.983 777.3C151.355 762.584 157.108 745.565 163.269 727.34L163.307 727.228L164.241 724.465C164.687 723.145 165.135 721.82 165.584 720.488L166.198 718.671C194.181 635.824 232.291 522.993 231.598 417.369C230.849 290.438 175.83 205.693 63.5137 158.218C63.3064 158.26 61.6552 157.757 58.7577 156.873L58.757 156.873L58.7559 156.873C54.5134 155.579 47.6 153.471 38.6354 151.069ZM-45.461 154.123C-14.0147 157.48 14.6642 163.958 33.5823 169.027C47.7709 172.829 56.6589 175.693 56.8238 175.978C163.301 220.923 215.232 300.979 215.928 420.895C216.496 521.104 180.226 628.217 153.647 706.707L153.359 707.557C151.537 713.083 149.716 718.532 147.936 723.859C143.427 737.349 139.179 750.061 135.827 761.276C116.119 826.722 52.0741 841.425 0.27441 827.545L-1.30209 827.123C-67.0468 808.579 -126.183 744.596 -106.58 646.159C-111.933 683.472 -105.446 717.87 -87.446 746.831C-69.0529 776.381 -38.8311 798.721 -4.71891 808.344L-3.14242 808.767C24.1087 816.069 51.5054 814.72 74.1813 804.864C99.5317 794.035 117.64 773.3 126.144 745.163C129.315 734.618 133.349 722.697 137.634 710.034C139.339 704.993 141.085 699.834 142.831 694.598C168.003 620.477 202.398 519.136 201.792 424.107C201.479 372.125 190.583 327.204 169.255 290.591C144.3 247.695 104.644 214.62 51.067 192.057C51.0464 192.052 50.934 192.014 50.7334 191.948L50.729 191.946L50.7261 191.946L50.7255 191.945C46.509 190.548 4.19705 176.523 -45.9773 171.365C-94.8137 166.245 -161.367 168.689 -201.291 208.683C-238.162 245.392 -207.903 299.123 -169.565 366.846C-130.692 435.429 -82.6741 520.148 -99.0148 609.966C-86.0508 517.518 -135.152 430.612 -175.259 359.625L-175.324 359.51C-215.805 288.074 -247.487 231.548 -209.233 193.279C-167.068 151.23 -97.1206 148.73 -45.461 154.123ZM28.3644 186.698C10.5724 181.931 -16.4697 175.651 -46.3394 172.716C-94.7253 167.717 -160.768 170.056 -200.571 209.6C-236.578 245.522 -206.981 298.068 -169.379 364.829L-168.648 366.126C-130.205 433.946 -83.0849 517.37 -97.3985 606.081C-79.9229 520.321 -125.629 439.271 -162.724 373.748L-162.786 373.64C-198.786 309.966 -227.241 259.639 -192.629 225.005C-155.066 187.516 -92.6435 185.172 -46.8556 189.958C0.359239 194.792 39.8935 207.86 43.9362 209.197L43.9377 209.197L44.0734 209.242L44.1685 209.273C44.2269 209.292 44.2619 209.304 44.2728 209.306C94.5918 230.514 131.847 261.739 155.379 301.839C175.328 336.392 185.761 378.534 185.958 427.348C186.434 516.161 154.401 611.098 130.974 680.532L130.667 681.441C130.309 682.5 129.952 683.556 129.596 684.608L128.889 686.698L128.86 686.785L128.86 686.786C123.688 702.076 118.807 716.508 115.05 728.914C97.3164 787.889 39.9119 801.233 -6.48258 788.802L-8.05908 788.38C-40.1442 779.3 -68.5805 758.404 -85.7592 730.627C-103.419 702.338 -109.178 668.624 -103.12 632.177C-124.33 727.301 -67.6585 789.325 -4.80725 806.872L-3.23075 807.295C45.6411 820.39 105.885 806.359 124.568 744.741C129.001 729.997 134.895 712.507 141.255 694.175C166.426 620.054 200.822 518.714 200.155 423.91C199.57 310.783 150.502 235.357 50.3149 193.063C50.2007 193.129 48.8287 192.703 46.3591 191.937L46.3576 191.937L46.3567 191.936C42.65 190.787 36.4722 188.871 28.3644 186.698ZM-46.7673 191.43C-18.8199 194.332 6.64561 200.19 23.3116 204.656C33.7147 207.443 41.0144 209.739 43.3525 210.475L43.3539 210.476C43.799 210.616 44.0639 210.699 44.136 210.718C138.034 250.361 184.177 321.383 184.711 427.496C185.023 515.977 153.084 610.636 129.66 680.057L129.316 681.079C128.71 682.872 128.107 684.656 127.507 686.428L127.507 686.429L127.506 686.431C122.335 701.718 117.455 716.148 113.699 728.552C96.2668 786.401 39.6587 799.476 -6.06014 787.225L-7.41143 786.863C-65.4204 770.627 -117.579 714.412 -100.736 627.951C-105.051 660.063 -99.2329 689.678 -83.6223 714.544C-67.5977 740.321 -41.0073 759.998 -10.9491 768.535L-9.59783 768.897C33.8688 780.544 87.4124 768.097 103.834 713.115C107.785 700.173 112.85 684.874 118.381 668.735L118.911 667.169C140.887 602.241 170.799 513.865 170.228 431.099C169.922 385.394 160.237 345.866 141.607 313.597C119.844 275.903 84.9298 246.753 37.8684 226.901C37.7035 226.616 -0.985083 213.353 -47.2837 208.671C-90.0231 204.22 -148.541 206.403 -183.578 241.672C-215.891 274.028 -189.409 320.932 -155.713 380.614L-155.659 380.71C-121.692 440.787 -80.013 514.515 -93.4941 592.735C-82.8888 511.417 -125.986 435.29 -161.297 372.924L-161.738 372.144C-197.23 309.359 -225.258 259.776 -191.459 226.042C-154.242 188.944 -92.3299 186.705 -46.7673 191.43ZM-182.572 242.424C-129.822 189.693 -23.5714 211.163 19.2197 222.629C28.4005 225.089 34.692 227.109 36.8069 227.788C37.2342 227.925 37.4909 228.007 37.5666 228.027C125.564 265.366 168.68 331.473 169.102 430.797C169.512 513.931 139.408 602.884 117.387 667.949L117.376 667.983C111.784 684.347 106.719 699.646 102.769 712.588C86.3628 766.609 33.6156 778.787 -9.17539 767.321L-10.5267 766.959C-63.2553 752.155 -110.866 701.817 -98.7802 624.508C-101.073 651.627 -95.4239 676.728 -82.1007 698.054C-67.0654 722.118 -42.2605 740.352 -14.2292 748.345L-12.878 748.707C27.6609 759.57 77.7938 748.14 93.2502 696.761C95.7868 687.951 99.1209 678.074 102.678 667.537L102.678 667.536L102.678 667.536L102.695 667.486C104.018 663.566 105.372 659.555 106.727 655.474C127.256 595.075 155.352 511.841 154.904 434.235C154.655 391.925 145.718 355.011 128.181 324.966C107.902 289.842 75.3282 262.768 31.5243 244.272C31.4849 244.261 31.3254 244.209 31.0513 244.121C21.9301 241.172 -114.099 197.189 -174.916 257.994C-205.232 288.252 -180.517 332.048 -149.044 387.552C-119.029 440.726 -82.4025 505.618 -89.8874 574.598C-84.9721 502.722 -123.121 435.249 -154.456 379.826L-154.516 379.72C-187.879 320.614 -214.192 273.999 -182.572 242.424ZM-173.746 259.031C-124.619 209.916 -25.9219 229.844 13.9413 240.526C22.5137 242.823 28.2278 244.684 30.1997 245.327L30.2024 245.328C30.6119 245.461 30.8594 245.542 30.937 245.563C112.705 280.025 152.672 341.667 153.267 434.038C153.775 511.418 125.74 594.428 105.211 654.826C104.644 656.534 104.079 658.233 103.518 659.921L103.485 660.02L103.475 660.053L103.474 660.056L103.473 660.058C99.099 673.219 94.9514 685.699 91.6738 696.339C76.519 746.591 27.3473 758.037 -12.5159 747.356L-13.8671 746.994C-64.45 732.743 -110.086 683.319 -94.6315 607.296C-98.2821 634.825 -93.3734 660.308 -79.9031 681.746C-65.9173 704.322 -43.1836 721.276 -17.1189 728.501L-15.9928 728.803C21.6182 738.881 67.9505 728.122 82.2162 680.287C85.255 670.525 89.1033 659.125 93.1735 647.069L93.1747 647.065L93.1758 647.062L94.0764 644.394C94.353 643.574 94.6304 642.752 94.9084 641.927C114.005 585.973 140.126 509.209 139.641 437.145C139.343 397.719 131.094 363.645 114.876 335.885C96.0209 303.555 65.8476 278.332 25.3012 261.191C25.2605 261.18 25.1009 261.129 24.828 261.041L24.8276 261.04C16.0572 258.207 -109.617 217.607 -165.909 273.925C-193.923 301.903 -171.023 342.558 -141.857 394.064L-141.573 394.568C-112.327 446.471 -76.4929 510.067 -88.5499 577.674C-79.5204 507.35 -116.808 441.3 -147.327 387.239L-147.616 386.728L-147.682 386.611C-178.57 331.793 -203.063 288.323 -173.746 259.031ZM8.66328 258.423C-28.2721 248.526 -119.642 230.078 -164.859 275.413C-191.957 302.671 -169.386 342.755 -140.49 393.465C-113.257 441.499 -80.3188 499.921 -85.0138 562.443C-77.588 503.099 -109.192 447.262 -135.085 401.514L-135.302 401.131L-135.447 400.875C-162.072 353.772 -183.26 316.287 -157.308 290.472C-105.454 238.712 10.6432 276.139 18.2833 278.602L18.288 278.604C18.5104 278.676 18.6397 278.717 18.6718 278.726C88.0855 307.946 123.42 362.554 123.747 440.611C124.101 506.52 100.359 576.727 82.9426 628.229L82.6833 628.996C78.2823 641.817 74.2876 654.024 71.0612 664.263C58.0466 708.33 15.3502 718.131 -19.1079 708.898L-20.234 708.597C-44.2717 701.914 -65.1595 686.179 -77.9913 665.602C-89.5257 647.141 -94.2503 625.533 -92.1866 602.079C-103.93 669.979 -62.6918 714.145 -16.6965 726.925C20.3435 737.332 66.555 727.024 80.8046 680.15C84.2723 669.01 88.5688 655.678 93.4968 641.791L94.0837 640.049C112.905 584.191 138.485 508.273 138.109 437.459C137.566 352.103 100.522 294.864 24.8184 262.993C24.676 262.955 24.296 262.842 23.6964 262.665L23.6957 262.664C21.4505 261.999 16.1274 260.423 8.66328 258.423ZM-156.198 291.735C-114.379 250.075 -30.5622 266.982 3.44541 276.094C10.607 278.013 15.5922 279.67 17.4332 280.282C17.8501 280.42 18.1058 280.505 18.189 280.528C87.7676 310.034 121.783 362.357 122.215 440.924C122.689 506.384 98.9479 576.589 81.5313 628.091L81.5312 628.092L81.2717 628.859C80.9375 629.833 80.6043 630.803 80.2727 631.768L80.2228 631.913L80.2137 631.939L80.2135 631.94C76.1995 643.623 72.4092 654.655 69.6495 664.126C56.7718 706.781 15.097 716.374 -18.6855 707.322L-19.8115 707.02C-62.5166 694.888 -100.941 653.717 -89.0487 590.43C-94.4471 643.541 -60.6037 678.277 -23.3493 688.692L-22.4484 688.933C9.08179 697.382 48.2027 688.312 60.6418 648.195C62.5081 641.839 64.9041 634.742 67.4581 627.177C68.6808 623.555 69.9397 619.826 71.1939 616.02C87.1406 569.119 108.816 504.441 108.588 444.032C108.148 372.704 75.9019 322.786 12.5527 296.156C12.5192 296.147 12.3881 296.105 12.1641 296.033C4.8739 293.686 -100.869 259.641 -148.196 306.914C-171.85 330.451 -152.634 364.514 -128.315 407.622L-128.176 407.868L-127.597 408.901C-103.555 451.769 -74.1318 504.23 -83.1263 559.76C-77.1223 500.905 -108.222 445.625 -133.874 400.307L-134.02 400.049C-160.314 353.519 -181.174 316.606 -156.198 291.735ZM-1.60791 294.052C-32.4625 285.784 -109.177 270.298 -147.146 308.402C-169.824 330.995 -150.937 364.485 -126.948 407.022L-126.809 407.269C-104.148 447.375 -76.8456 495.768 -80.139 547.537C-74.2613 498.706 -100.197 452.641 -121.621 414.935C-142.934 377.361 -161.278 344.927 -139.82 323.4C-96.8918 280.486 -0.848003 311.517 5.38556 313.531L5.58873 313.596C5.62012 313.606 5.6452 313.614 5.66383 313.62C5.68031 313.625 5.69177 313.629 5.69819 313.631C62.9223 337.895 92.1407 382.898 92.6939 447.498C93.0187 502.139 73.2583 560.571 58.6835 603.254C58.4517 603.943 58.2208 604.63 57.9908 605.314L57.5335 606.672C54.3889 616.016 51.4479 624.755 49.2014 632.335C38.3594 668.294 3.03909 676.693 -25.5633 669.029L-26.4642 668.787C-59.6205 659.479 -89.7568 629.152 -86.3681 582.702C-96.1205 639.39 -61.4253 676.345 -22.9269 687.115C8.03223 695.894 46.8073 687.214 58.5545 647.877C60.4208 641.521 62.8169 634.424 65.3708 626.859C66.5935 623.237 67.8524 619.509 69.1066 615.703C85.0533 568.801 106.894 504.408 106.605 444.225C106.226 372.672 75.1335 324.753 11.7844 298.123C11.1691 297.716 6.27467 296.164 -1.60791 294.052ZM-138.199 324.558C-103.914 290.295 -34.7523 304.24 -6.82554 311.723C-1.30802 313.202 2.59006 314.388 4.4176 314.944L4.42401 314.945C4.97994 315.115 5.34321 315.225 5.50097 315.267C136.072 370.289 86.9647 515.724 57.4528 602.441C57.0665 603.591 56.6822 604.733 56.3009 605.866L56.2995 605.87C53.1563 615.21 50.2165 623.945 47.9708 631.523C37.3702 666.581 2.90655 674.485 -24.795 667.062L-25.6959 666.821C-59.4625 657.33 -90.0941 625.529 -83.5946 576.616C-84.2494 615.53 -58.22 640.801 -29.8046 648.823L-28.9038 649.064C-3.22918 655.944 28.6805 648.562 38.1066 616.086C38.823 613.928 39.5691 611.66 40.3459 609.298L40.3531 609.276L40.3561 609.267C42.2897 603.387 44.4136 596.929 46.7437 590.158C59.6613 551.859 77.2815 499.612 77.0848 450.798C76.8688 393.048 50.7388 352.735 -0.645933 331.001C-0.672227 330.993 -0.774156 330.961 -0.948342 330.904L-0.953931 330.903L-0.957163 330.902L-0.958879 330.901C-6.84722 329.001 -92.5328 301.356 -130.933 339.782C-150.316 358.969 -133.785 388.261 -114.781 421.837C-96.9779 453.234 -75.5388 491.165 -77.1376 531.728C-77.5959 488.338 -100.38 447.917 -119.406 414.166L-119.622 413.781C-141.429 375.35 -158.62 344.915 -138.199 324.558ZM-12.1039 329.62C-37.1029 322.922 -98.9371 310.457 -129.598 341.105C-147.778 359.407 -132.566 386.415 -113.068 420.848L-112.567 421.739C-94.3414 454.158 -72.421 493.15 -75.2225 534.951C-69.4479 495.781 -90.3668 458.803 -107.45 428.605L-107.595 428.349C-124.455 398.485 -138.843 372.905 -121.926 355.713C-88.0488 321.771 -12.7057 346.041 -7.18258 347.82C-7.00327 347.878 -6.89755 347.912 -6.86922 347.92C38.4508 367.064 61.4926 402.687 61.8218 453.709C62.1143 496.579 46.4782 542.604 35.065 576.198L35.0649 576.199L34.9248 576.611C33.7796 580.133 32.6267 583.527 31.5239 586.773L31.5237 586.774L31.5234 586.775C29.9846 591.304 28.5436 595.546 27.3578 599.447C18.837 628.544 -9.21176 635.029 -31.9586 628.934L-32.6342 628.753C-58.5213 621.398 -82.0934 597.941 -80.0191 561.953C-88.3424 608.156 -60.3729 638.243 -29.0966 647.081L-28.421 647.262C-3.64723 653.9 26.9553 646.893 36.3048 615.603C38.4782 608.352 41.4468 599.774 44.5042 590.94L44.942 589.675C71.304 512.011 115.226 382.325 -1.41424 332.967C-1.57913 332.682 -5.57265 331.37 -12.1039 329.62ZM-120.651 357.261C-93.6744 330.454 -39.393 341.378 -17.3218 347.292C-15.0371 347.904 -13.0961 348.464 -11.5769 348.902C-9.35235 349.543 -8.03246 349.924 -7.86277 349.826C94.8518 393.021 56.1968 507.2 33.0361 575.613L32.9583 575.843C29.9894 584.22 27.3665 592.207 25.3308 598.904C16.8865 626.815 -10.3055 632.805 -32.3163 626.666C-59.9337 619.036 -84.6117 592.261 -77.0039 551.284C-78.5163 582.354 -58.2866 602.601 -35.7493 608.849L-35.0736 609.03C-15.4798 614.28 8.93305 608.752 16.3676 583.708C17.8074 579.058 19.5476 573.866 21.4408 568.219L21.4432 568.211C21.9085 566.823 22.383 565.407 22.8646 563.966C32.8575 534.78 46.1974 494.904 46.0922 457.46C45.875 413.228 25.6963 382.233 -13.559 365.68C-16.4265 364.67 -83.0699 342.227 -113.385 372.485C-128.14 387.25 -115.739 409.292 -101.294 434.965L-101.04 435.416C-86.3933 461.085 -68.5208 492.615 -72.7051 525.958C-70.9587 489.543 -90.1879 455.434 -106.107 427.3C-123.132 397.15 -136.531 373.283 -120.651 357.261ZM-22.3748 365.249C-41.2929 360.18 -88.4719 350.677 -111.599 373.929C-125.404 387.61 -113.593 408.396 -98.8156 434.323L-98.6752 434.571C-85.7224 457.534 -70.31 484.856 -69.755 514.233C-68.2433 487.879 -82.2408 462.946 -93.7645 442.419L-93.9137 442.154C-106.383 420.225 -117.039 401.438 -104.213 388.702C-79.8274 364.332 -27.8409 380.356 -20.4216 382.643C-20.0174 382.767 -19.7455 382.851 -19.6175 382.885C57.1519 415.284 28.4084 500.034 11.2106 550.705C9.49991 555.649 8.01024 560.344 6.71898 564.414L6.7166 564.421L6.71578 564.424C6.3928 565.442 6.08222 566.421 5.78372 567.355C-0.910504 588.734 -21.5227 593.591 -38.4139 589.065L-38.8644 588.944C-57.0179 583.881 -73.5646 567.919 -73.8883 543.619C-79.5548 577.96 -58.3453 600.396 -34.9809 606.882L-34.3053 607.063C-15.6123 612.072 7.55377 606.693 14.8515 583.061C16.3768 578.134 18.2831 572.437 20.3205 566.347L20.321 566.346L20.343 566.28C20.6948 565.229 21.0505 564.166 21.4088 563.093L21.4868 562.861C41.4374 503.727 74.7414 405.013 -13.8166 367.542L-22.3748 365.249ZM-102.938 390.251C-83.2092 370.674 -43.5831 378.636 -27.5927 382.921C-24.3121 383.8 -21.9559 384.589 -21.0571 384.891C-20.8452 384.962 -20.7143 385.005 -20.6714 385.017C54.1314 416.647 25.9149 500.332 8.95846 550.101C7.16571 555.282 5.61567 560.19 4.24673 564.525C3.98158 565.364 3.72322 566.182 3.47121 566.976C-2.63573 587.065 -22.3913 591.427 -38.3212 586.917C-58.3996 581.308 -76.301 561.869 -70.771 532.219C-70.1262 551.384 -57.1193 564.787 -41.9794 569.04L-41.529 569.161C-27.7908 572.842 -10.7541 568.717 -5.37134 551.33C-4.70092 548.828 -3.78985 546.115 -2.81135 543.2L-2.81116 543.2L-2.81102 543.199C-2.20426 541.392 -1.57154 539.507 -0.954135 537.548L-0.951066 537.539C13.0972 495.92 36.4822 426.642 -26.4118 400.134C-26.4765 400.117 -26.5863 400.084 -26.7389 400.038C-26.8333 400.009 -26.944 399.975 -27.0706 399.936C-33.1495 398.06 -75.7551 384.918 -95.7764 404.963C-106.302 415.419 -97.4599 431.065 -87.2984 448.995C-77.7399 465.838 -66.1053 486.527 -67.547 508.273C-68.1825 483.5 -81.2181 460.449 -92.2003 441.164L-92.4223 440.768C-104.726 418.804 -114.373 401.584 -102.938 390.251ZM-94.0512 406.632C-78.232 390.836 -45.9334 397.318 -32.8709 400.818L-32.8696 400.818C-29.4921 401.723 -27.4657 402.266 -27.3008 402.552C33.6313 428.292 10.6002 496.228 -3.20629 536.944C-4.81949 542.064 -6.31201 546.733 -7.6235 550.727C-12.4189 566.822 -28.0882 570.348 -40.9255 566.908L-41.376 566.788C-58.432 561.976 -73.6409 544.866 -66.8658 518.68C-60.1726 492.818 -73.6283 468.733 -84.6036 449.087L-84.6422 449.018C-84.8623 448.624 -85.0815 448.232 -85.2994 447.841L-85.89 446.78C-95.5502 429.416 -103.13 415.793 -94.0512 406.632Z" fill="url(#paint0_linear_15_562)"/>
<defs>
<linearGradient id="paint0_linear_15_562" x1="-381.132" y1="391.59" x2="320.729" y2="579.653" gradientUnits="userSpaceOnUse">
<stop stop-color="#FFD110" stop-opacity="0"/>
<stop offset="0.286458" stop-color="#109BFF"/>
<stop offset="0.614583" stop-color="#FF0469"/>
<stop offset="1" stop-color="#04DA00" stop-opacity="0"/>
</linearGradient>
</defs>
</svg>
