<svg width="621" height="671" viewBox="0 0 621 671" fill="none" xmlns="http://www.w3.org/2000/svg">
<g opacity="0.33">
<path d="M161.826 450.953C227.118 450.953 245.746 656.12 377.483 656.12C427.221 656.12 461.019 602.473 461.019 562.478C461.019 536.519 440.087 504.216 440.087 465.759C440.087 388.076 592.948 429.225 592.948 317.892C592.948 254.823 541.098 201.753 490.977 201.753C456.026 201.753 413.97 230.403 387.853 230.403C350.406 230.403 366.921 151.951 365.001 130.608C360.392 79.6522 304.701 35.2345 254.964 35.2345C187.751 35.2345 191.016 129.069 191.016 173.871C191.016 345.389 57.166 235.402 57.166 380.192C57.166 409.42 69.6484 479.988 109.592 479.988C133.213 479.988 124.955 450.953 161.826 450.953Z" stroke="url(#paint0_linear_15_457)" stroke-miterlimit="10"/>
<path d="M109.976 484.411C132.828 485.18 124.955 456.914 160.29 457.491C223.47 458.452 242.673 656.697 370.378 656.697C396.303 656.697 415.506 641.315 432.406 624.394C449.497 607.088 461.403 585.552 463.516 565.555C466.396 540.75 446.616 508.638 447 470.374C447.192 458.068 451.033 448.646 457.37 440.762C491.169 398.267 589.876 412.689 589.876 318.662C589.876 254.054 544.171 199.253 495.97 197.715C462.555 196.753 420.883 221.943 393.038 221.366C376.331 220.981 369.994 206.175 367.305 187.908C364.041 165.027 367.113 136.953 365.193 125.993C357.511 78.8832 303.741 40.0417 253.427 40.0417C187.367 40.0417 187.943 127.723 186.215 170.603C184.294 219.058 172.004 245.978 156.065 263.284C118.81 303.856 58.3181 280.205 60.2385 381.539C60.4305 389.999 61.5827 401.921 63.8872 414.611C68.496 441.339 77.7138 469.605 96.7254 480.757C100.758 482.872 105.175 484.218 109.976 484.411Z" stroke="url(#paint1_linear_15_457)" stroke-miterlimit="10"/>
<path d="M110.744 489.025C132.636 490.756 125.147 463.067 159.137 464.221C220.013 466.144 239.793 657.274 363.272 657.274C391.118 657.274 409.361 639.007 428.757 622.086C447 605.934 461.595 588.052 466.204 568.439C471.773 544.98 453.338 513.061 454.298 474.604C454.49 462.298 458.523 452.876 464.284 444.608C497.314 398.46 586.803 413.842 586.803 319.046C586.803 252.9 547.051 196.369 500.963 193.485C469.085 191.562 427.797 213.29 398.415 212.136C381.708 211.367 374.795 197.33 371.146 179.832C366.537 157.912 368.265 131.569 365.577 121.57C354.439 78.4986 302.397 44.6566 251.699 44.6566C186.599 44.6566 184.486 125.993 181.222 167.142C177.573 213.482 164.322 241.171 148.959 260.592C113.817 304.817 59.4703 282.32 63.311 382.692C63.6951 391.537 64.8473 403.459 67.1518 416.342C71.7607 444.031 79.2501 471.72 97.6856 484.411C101.718 486.91 105.943 488.641 110.744 489.025Z" stroke="url(#paint2_linear_15_457)" stroke-miterlimit="10"/>
<path d="M111.32 493.64C132.06 496.14 125.147 469.412 157.793 470.951C216.556 473.835 236.72 657.851 356.359 657.851C386.317 657.851 403.408 636.7 425.3 619.779C444.696 604.781 461.979 590.552 469.085 571.515C477.15 549.595 460.251 517.483 461.787 479.219C462.171 466.913 466.204 457.491 471.581 449.03C503.651 399.421 584.307 415.381 584.307 319.815C584.307 252.131 550.508 193.677 506.724 189.447C476.19 186.37 435.478 204.829 404.56 202.906C387.853 201.945 380.364 188.293 375.755 171.756C369.994 150.797 370.186 126.185 366.729 117.148C352.326 78.114 302.013 49.6559 250.931 49.6559C186.791 49.6559 182.182 124.839 177.189 164.065C171.62 208.29 157.601 236.556 142.814 258.284C109.784 306.163 61.7749 284.82 67.1519 384.231C67.728 393.268 69.0723 405.382 71.1847 418.649C75.6015 447.107 81.5547 474.027 99.4141 488.641C102.679 491.141 106.904 493.063 111.32 493.64Z" stroke="url(#paint3_linear_15_457)" stroke-miterlimit="10"/>
<path d="M112.088 498.255C131.868 501.524 125.339 475.566 156.449 477.489C213.1 481.334 233.84 658.428 349.446 658.428C381.516 658.428 397.263 634.2 421.843 617.471C442.199 603.627 462.363 593.244 471.965 574.4C482.335 554.018 467.356 521.906 469.084 483.449C469.661 471.143 473.501 461.529 478.686 452.876C509.988 399.421 581.426 416.342 581.426 320.2C581.426 250.978 553.581 190.793 511.909 185.024C482.911 180.986 442.583 195.984 409.937 193.485C393.23 192.139 385.164 179.063 379.787 163.296C372.874 143.299 371.53 120.417 367.305 112.148C349.638 77.345 301.052 53.8864 249.587 53.8864C186.599 53.8864 179.301 122.724 172.58 160.22C165.09 202.138 150.496 231.365 136.093 255.016C104.983 306.356 63.311 286.358 70.4163 384.808C70.9925 394.037 72.7208 406.343 74.6412 419.803C78.4819 449.607 82.8987 475.566 100.374 492.102C103.639 495.179 107.671 497.486 112.088 498.255Z" stroke="url(#paint4_linear_15_457)" stroke-miterlimit="10"/>
<path d="M112.665 502.678C131.292 506.716 125.531 481.526 155.105 484.026C209.451 488.833 230.767 659.005 342.34 659.005C376.331 659.005 390.926 631.7 418.195 615.164C439.319 602.473 462.171 595.935 474.462 577.476C486.944 558.632 473.885 526.521 476.19 488.064C476.958 475.95 480.799 466.144 485.6 457.106C515.941 399.805 578.545 417.88 578.545 320.969C578.545 250.208 556.653 188.293 517.094 180.986C489.44 175.987 449.689 187.524 415.506 184.255C398.799 182.717 390.157 170.026 383.82 155.22C375.563 136.184 372.874 115.033 367.881 107.726C346.949 77.1525 300.092 58.6932 248.242 58.6932C186.215 58.6932 176.421 121.186 167.971 156.95C158.753 196.561 143.198 226.557 129.18 252.516C99.9901 307.317 65.0394 288.665 73.6811 386.346C74.4492 395.768 76.1775 408.266 78.0979 421.918C82.1307 452.299 84.8192 477.488 101.718 495.755C104.599 499.216 108.44 501.908 112.665 502.678Z" stroke="url(#paint5_linear_15_457)" stroke-miterlimit="10"/>
<path d="M113.241 507.292C130.716 511.907 125.531 487.679 153.568 490.756C205.994 496.524 227.695 659.581 335.235 659.581C371.338 659.581 384.397 629.201 414.546 612.856C436.438 601.127 461.979 598.627 477.15 580.36C491.553 562.863 480.607 530.751 483.295 492.294C484.064 480.18 487.904 470.374 492.321 461.144C521.703 399.998 575.281 419.034 575.281 321.546C575.281 249.247 559.342 185.409 521.895 176.756C495.586 170.795 456.41 178.871 420.499 175.025C403.792 173.102 394.574 161.181 387.277 146.952C377.867 128.685 373.642 109.456 367.881 103.111C344.069 76.9603 298.556 63.3081 246.13 63.3082C185.255 63.3082 172.772 119.263 162.594 153.489C151.648 190.985 135.133 221.558 121.69 249.632C94.2291 307.701 65.9997 290.588 76.1777 387.307C77.1379 396.921 79.0582 409.612 80.7866 423.649C84.6273 454.991 85.5875 479.219 102.103 499.409C105.559 503.254 109.208 506.139 113.241 507.292Z" stroke="url(#paint6_linear_15_457)" stroke-miterlimit="10"/>
<path d="M114.009 511.907C131.1 514.022 125.723 493.832 152.416 497.486C202.73 504.216 224.814 660.158 328.514 660.158C366.537 660.158 378.251 626.509 411.282 610.741C433.942 599.781 461.979 601.512 480.223 583.629C496.546 567.67 487.904 535.558 490.977 497.101C491.937 484.987 495.778 474.989 499.811 465.567C528.232 400.575 572.977 420.572 572.977 322.507C572.976 248.67 563.183 183.101 527.656 172.91C502.883 165.796 464.092 170.795 426.645 166.18C409.745 164.065 400.143 152.528 391.886 139.26C381.132 121.955 375.755 104.457 369.034 98.8806C342.532 76.9602 298.172 68.4997 245.362 68.4997C185.446 68.4997 170.468 118.109 158.753 150.605C146.079 185.793 128.412 217.135 115.737 247.516C90.0042 309.047 68.6882 293.28 80.2104 389.038C81.3626 399.036 83.2829 411.727 85.0113 425.956C88.66 458.26 88.0839 481.334 104.023 503.639C106.519 507.1 110.168 509.792 114.009 511.907Z" stroke="url(#paint7_linear_15_457)" stroke-miterlimit="10"/>
<path d="M114.585 516.522C130.716 518.829 125.915 500.178 151.072 504.024C199.273 511.715 221.933 660.735 321.408 660.735C361.544 660.735 371.722 623.817 407.633 608.434C430.869 598.435 461.403 604.011 482.911 586.514C500.963 571.9 494.625 539.788 498.082 501.524C499.234 489.602 502.883 479.411 506.724 469.797C533.993 400.767 569.904 421.918 569.904 323.084C569.904 247.709 566.063 180.409 532.649 168.872C509.22 160.796 470.813 162.335 432.022 156.951C415.122 154.643 404.944 143.491 395.727 131.185C383.82 114.84 376.907 99.073 369.418 94.4582C340.42 76.7681 297.02 73.3069 243.826 73.3069C184.87 73.3069 167.395 116.379 153.952 147.336C139.55 180.217 120.922 212.328 108.824 245.017C84.8192 309.817 70.4165 295.587 83.2829 390.384C84.6272 400.575 86.7396 413.458 88.2759 428.071C91.7325 461.336 89.6201 483.257 104.983 507.869C107.48 511.138 111.128 514.022 114.585 516.522Z" stroke="url(#paint8_linear_15_457)" stroke-miterlimit="10"/>
<path d="M115.353 521.137C130.524 523.829 126.107 506.331 149.727 510.754C195.816 519.407 218.861 661.312 314.495 661.312C356.743 661.312 365.385 621.125 404.176 606.127C428.181 596.897 461.019 606.319 485.6 589.398C505.187 575.938 501.347 544.211 505.379 505.754C506.724 493.833 510.18 483.449 513.829 473.643C539.754 400.575 567.215 423.072 567.215 323.469C567.215 246.555 569.328 177.333 538.026 164.45C516.133 155.412 478.11 153.682 437.59 147.529C420.691 145.029 409.745 134.261 399.759 122.724C386.509 107.341 378.443 93.3046 369.801 89.459C338.307 75.8068 296.059 77.5373 242.289 77.5373C184.486 77.5373 164.514 114.264 149.151 143.491C133.212 173.872 113.24 206.945 101.91 241.748C79.6341 309.817 72.1447 297.126 86.5474 390.961C88.0837 401.344 90.1961 414.419 91.7324 429.225C94.997 463.452 91.5404 484.219 106.135 510.946C108.632 515.176 111.896 518.445 115.353 521.137Z" stroke="url(#paint9_linear_15_457)" stroke-miterlimit="10"/>
<path d="M115.929 525.56C130.14 528.444 126.299 512.484 148.383 517.291C192.552 526.906 215.98 661.697 307.39 661.697C351.558 661.697 358.663 618.048 400.527 603.627C425.108 595.166 460.443 608.434 488.288 592.282C509.604 579.976 508.068 548.441 512.677 510.177C514.021 498.255 517.67 487.872 520.742 477.681C545.515 400.575 564.143 424.226 564.143 324.046C564.143 245.594 572.208 174.641 543.211 160.219C522.663 150.028 485.216 145.029 443.16 138.299C426.26 135.607 414.738 125.224 403.984 114.648C389.389 100.227 380.172 87.7283 370.57 85.0363C336.771 75.4221 295.291 82.3443 241.137 82.3443C184.294 82.3444 162.018 112.533 144.735 140.222C127.259 168.295 106.135 202.137 95.3812 239.248C74.6412 310.586 74.4492 299.433 90.0042 392.499C91.7325 403.074 94.0369 416.342 95.3812 431.34C98.4538 466.336 93.4608 486.141 107.48 514.984C109.592 519.214 112.665 522.675 115.929 525.56Z" stroke="url(#paint10_linear_15_457)" stroke-miterlimit="10"/>
<path d="M116.505 530.174C129.756 533.443 126.299 518.637 147.039 524.021C189.287 534.789 212.908 662.466 300.476 662.466C346.757 662.466 352.326 615.356 397.263 601.512C422.612 593.82 460.251 610.741 491.361 595.359C514.213 584.014 515.173 553.056 520.166 514.599C521.703 502.87 525.159 492.294 528.04 481.911C551.468 400.767 561.646 425.572 561.646 324.815C561.646 244.824 575.665 171.949 548.78 156.181C529.768 145.029 492.705 136.761 448.921 129.069C432.021 125.993 419.731 116.379 408.209 106.38C392.27 92.9199 381.9 82.152 371.338 80.4214C335.043 74.4606 294.523 87.1514 239.985 87.1514C184.294 87.1514 159.521 110.802 140.318 136.953C121.306 162.527 98.8378 197.138 88.6599 236.556C69.6483 311.355 76.5616 301.548 93.2688 393.652C95.1891 404.42 97.4936 417.88 98.8378 433.263C101.718 469.22 95.3812 487.872 108.632 518.83C110.552 523.252 113.625 526.905 116.505 530.174Z" stroke="url(#paint11_linear_15_457)" stroke-miterlimit="10"/>
<path d="M117.273 534.789C129.372 538.25 126.683 524.983 145.695 530.751C186.022 542.673 210.027 663.043 293.563 663.043C341.764 663.043 345.797 612.28 393.806 599.204C419.731 592.09 459.675 612.857 494.049 598.435C518.63 588.244 521.895 557.671 527.464 519.214C529.192 507.485 532.457 496.717 535.145 486.141C557.037 400.959 558.766 426.918 558.766 325.392C558.766 243.863 578.737 169.257 553.965 151.951C536.297 139.645 499.81 128.3 454.49 119.84C437.398 116.571 424.724 107.341 412.242 98.3039C394.958 85.8055 383.436 76.5759 371.914 75.8067C333.315 73.4993 293.563 91.7663 238.641 91.7663C183.91 91.7663 157.025 109.072 135.709 133.492C115.353 156.951 91.3484 192.331 82.1306 233.864C64.6553 311.932 78.866 303.664 96.9175 394.806C99.0299 405.766 101.526 419.419 102.679 434.994C105.367 471.912 97.8777 489.41 110.168 522.483C111.704 527.098 114.393 531.136 117.273 534.789Z" stroke="url(#paint12_linear_15_457)" stroke-miterlimit="10"/>
<path d="M117.849 539.404C128.988 543.25 126.683 531.328 144.35 537.289C182.758 550.364 206.954 663.62 286.458 663.62C336.771 663.62 339.268 609.203 390.157 597.089C416.85 590.744 459.099 614.972 496.738 601.512C522.855 592.09 528.808 562.093 534.569 523.637C536.297 511.907 539.562 501.139 542.058 490.179C562.414 400.959 555.885 428.264 555.885 325.968C555.885 242.902 581.81 166.373 559.15 147.913C542.827 134.646 506.916 120.032 460.059 110.61C442.967 107.149 429.525 98.3039 416.274 90.228C397.647 78.6909 384.972 70.9995 372.49 71.3841C331.202 72.7301 292.603 96.5733 237.296 96.5733C183.526 96.5733 154.528 107.341 131.1 130.223C109.4 151.374 83.8589 187.524 75.4093 231.365C59.4702 312.701 80.9783 305.971 100.182 396.152C102.678 407.497 104.983 421.149 106.135 436.916C108.632 474.796 99.7979 491.141 111.128 526.329C112.664 531.136 115.353 535.366 117.849 539.404Z" stroke="url(#paint13_linear_15_457)" stroke-miterlimit="10"/>
<path d="M118.618 543.826C128.796 547.864 127.067 537.673 143.006 543.826C179.493 558.056 204.074 664.004 279.544 664.004C331.97 664.004 332.739 605.934 386.701 594.59C413.97 588.821 458.715 616.702 499.618 604.396C527.464 595.936 535.721 566.516 542.058 528.059C543.979 516.33 547.051 505.37 549.356 494.409C568.175 401.152 553.197 429.61 553.197 326.738C553.197 242.132 585.075 163.681 564.527 143.875C549.74 129.454 514.213 111.764 465.628 101.573C448.537 97.9193 434.518 89.6511 420.307 82.152C400.335 71.5763 386.509 65.4233 373.066 66.7692C329.282 71.5764 291.643 101.188 235.952 101.188C183.334 101.188 152.032 105.611 126.491 126.762C103.447 145.798 76.3696 182.332 68.4961 228.48C54.0933 313.085 83.0909 307.894 103.255 397.306C105.943 408.843 108.44 422.687 109.4 438.839C111.704 477.681 101.718 492.871 112.088 530.174C113.625 535.174 116.121 539.789 118.618 543.826Z" stroke="url(#paint14_linear_15_457)" stroke-miterlimit="10"/>
<path d="M119.194 548.441C128.412 552.864 127.067 544.019 141.662 550.556C176.421 565.939 201.001 664.773 272.439 664.773C326.785 664.773 326.209 602.858 383.052 592.474C411.09 587.283 458.139 618.817 502.307 607.472C531.881 599.973 542.443 570.938 549.164 532.482C551.276 520.944 554.157 509.792 556.077 498.447C573.169 401.151 550.124 430.763 550.124 327.314C550.124 241.171 587.955 160.796 569.52 139.645C556.077 124.07 521.127 103.303 471.005 92.343C453.914 88.4973 439.127 80.6136 424.34 74.076C402.832 64.4618 387.853 59.8469 373.642 62.3466C327.17 70.8071 290.683 105.995 234.608 105.995C182.95 105.995 149.728 104.072 121.882 123.493C97.6857 140.414 68.8802 177.525 61.7748 225.981C48.7163 314.047 85.2033 310.201 106.711 398.652C109.592 410.381 112.28 424.418 113.049 440.762C114.969 480.565 103.831 494.602 113.433 534.02C114.777 539.212 116.889 544.019 119.194 548.441Z" stroke="url(#paint15_linear_15_457)" stroke-miterlimit="10"/>
<path d="M119.962 553.056C128.219 557.671 127.451 550.556 140.51 557.286C173.348 574.015 198.121 665.158 265.526 665.158C321.984 665.158 319.68 599.397 379.595 589.975C408.209 585.552 457.946 620.356 504.995 610.357C536.489 603.627 549.164 575.361 556.461 536.904C558.574 525.367 561.454 514.022 563.182 502.485C578.545 401.152 547.243 431.917 547.243 327.699C547.243 240.017 591.028 157.72 574.705 135.223C562.798 118.686 528.04 94.6506 476.382 82.729C459.099 78.691 443.928 71.3842 428.181 65.4234C405.328 56.7706 389.197 53.5017 374.026 57.3474C324.673 69.2691 289.722 110.418 233.071 110.418C182.374 110.418 147.039 102.342 117.081 119.84C91.7324 134.646 61.1986 172.333 54.8614 222.904C43.3392 314.239 87.3156 311.739 109.784 399.421C112.856 411.343 115.545 425.572 116.313 442.3C118.041 483.065 105.751 495.948 114.393 537.481C115.737 543.25 117.849 548.249 119.962 553.056Z" stroke="url(#paint16_linear_15_457)" stroke-miterlimit="10"/>
<path d="M120.538 557.671C127.835 562.67 127.643 557.094 138.973 563.824C170.083 582.091 195.048 665.735 258.612 665.735C316.991 665.735 313.343 596.128 376.139 587.667C405.52 583.822 457.562 622.086 507.876 613.241C541.098 607.472 556.077 579.591 563.951 541.134C566.255 529.597 568.944 518.253 570.48 506.523C584.114 401.151 544.747 433.263 544.747 328.276C544.747 239.056 594.484 154.835 580.466 130.992C569.904 113.302 535.721 86.3822 482.527 73.4992C465.244 69.2689 449.305 62.539 432.79 57.3473C408.593 49.8482 391.118 47.9254 374.987 52.7325C322.945 68.3075 289.146 115.033 231.919 115.033C182.374 115.033 144.927 100.804 112.664 116.379C85.9713 129.262 53.9012 167.334 48.3321 220.212C38.3462 314.816 89.812 313.854 113.241 400.575C116.505 412.689 119.386 427.11 119.962 444.031C121.498 485.757 108.248 497.486 115.737 541.134C116.889 547.095 118.618 552.479 120.538 557.671Z" stroke="url(#paint17_linear_15_457)" stroke-miterlimit="10"/>
<path d="M121.114 562.093C127.451 567.285 127.643 563.439 137.629 570.362C166.819 590.359 192.168 666.312 251.699 666.312C312.191 666.312 307.006 592.667 372.682 585.552C402.832 582.283 457.37 624.009 510.757 616.51C545.707 611.51 562.991 584.398 571.248 545.942C573.745 534.597 576.241 522.867 577.585 510.946C589.492 401.536 541.867 434.801 541.867 329.237C541.867 238.479 597.749 152.336 585.651 127.146C576.625 108.303 542.827 78.3063 487.904 64.4619C470.621 60.0393 454.106 53.6939 436.63 49.2714C411.09 42.7337 392.462 42.3491 375.371 48.31C320.448 67.3461 287.994 119.84 230.383 119.84C181.798 119.84 142.43 99.6499 107.864 113.11C80.0183 123.878 46.2198 162.527 41.4189 217.52C32.7773 315.585 91.9246 315.97 116.505 401.921C119.962 414.227 122.842 428.841 123.419 445.954C124.763 488.449 110.36 499.217 116.889 544.98C117.85 551.133 119.578 556.902 121.114 562.093Z" stroke="url(#paint18_linear_15_457)" stroke-miterlimit="10"/>
<path d="M121.882 566.708C127.259 572.285 127.836 570.169 136.477 577.092C163.554 598.82 189.287 666.888 244.594 666.888C307.198 666.888 300.284 589.398 369.034 583.245C399.759 580.553 456.794 625.74 513.253 619.394C550.124 615.356 569.52 588.629 578.354 550.172C580.85 538.827 583.347 527.098 584.307 514.792C594.293 401.344 538.794 435.763 538.794 329.622C538.794 237.325 600.63 149.259 590.644 122.916C583.154 103.111 549.548 70.0381 493.281 55.2322C475.998 50.6174 458.715 44.8488 440.471 41.1954C413.586 35.8115 393.614 36.7729 375.755 43.6951C317.952 66.1924 286.842 124.455 228.847 124.455C181.414 124.455 139.934 98.3039 103.255 109.649C74.4493 118.878 38.9225 157.912 34.8897 215.213C27.7844 316.546 94.4211 318.277 119.962 403.459C123.803 416.15 126.683 430.956 127.067 448.261C128.22 491.717 112.665 501.332 118.234 549.403C119.002 555.171 120.346 561.132 121.882 566.708Z" stroke="url(#paint19_linear_15_457)" stroke-miterlimit="10"/>
<path d="M122.458 571.323C126.875 577.284 127.835 576.899 134.941 583.821C159.906 607.472 186.215 667.657 237.488 667.657C302.013 667.657 293.755 586.129 365.385 581.129C396.879 579.014 456.41 627.662 515.942 622.663C554.733 619.394 576.241 593.436 585.459 554.979C588.147 543.634 590.452 531.712 591.22 519.406C599.285 401.921 535.721 437.685 535.721 330.775C535.721 236.941 603.702 147.144 595.637 119.263C589.492 98.3039 556.461 62.1544 498.658 46.5794C481.183 41.7723 463.515 36.5806 444.504 33.6964C416.274 29.2738 394.958 31.7735 376.331 39.8494C315.647 66.0001 285.882 130.031 227.502 130.031C181.03 130.031 137.437 98.1116 98.6459 107.149C68.3041 114.263 31.241 153.489 27.9764 213.098C22.2153 317.892 96.5335 320.969 123.035 405.189C127.067 418.072 129.948 433.071 130.332 450.569C131.292 494.986 114.777 503.447 119.194 553.633C119.962 559.209 121.114 565.362 122.458 571.323Z" stroke="url(#paint20_linear_15_457)" stroke-miterlimit="10"/>
<path d="M123.226 575.938C125.531 582.668 127.835 583.629 133.789 590.359C156.257 616.318 183.334 668.042 230.575 668.042C297.212 668.042 287.418 582.476 361.928 578.63C394.19 576.899 456.218 629.201 518.822 625.355C559.534 622.855 583.154 597.474 592.948 559.017C595.829 547.672 597.941 535.751 598.517 523.06C604.662 401.536 533.225 438.455 533.225 330.776C533.225 235.403 607.159 143.683 601.206 114.456C596.597 92.343 563.951 53.3093 504.419 36.5806C486.944 31.7735 468.7 26.9664 448.729 24.659C419.155 21.3901 396.687 25.2358 377.099 34.4655C313.535 64.2695 285.113 133.876 226.35 133.876C180.837 133.876 135.133 95.9965 94.2289 102.919C62.5429 108.303 23.7515 147.913 21.447 209.444C17.2222 317.508 99.2219 321.93 126.683 405.382C130.908 418.457 133.788 433.648 134.173 451.338C134.749 496.717 117.273 504.216 120.73 556.325C121.114 563.247 120.922 569.977 123.226 575.938Z" stroke="url(#paint21_linear_15_457)" stroke-miterlimit="10"/>
<path d="M123.803 580.553C125.531 587.283 127.835 590.359 132.444 597.089C152.032 625.355 180.453 668.619 223.854 668.619C292.411 668.619 281.273 578.822 358.663 576.322C391.694 575.169 456.218 630.931 521.895 628.431C564.527 626.701 590.26 602.088 600.438 563.632C603.318 552.479 605.431 540.365 605.815 527.29C609.847 401.921 530.536 439.801 530.536 331.545C530.536 234.633 610.616 140.991 606.583 110.418C603.51 87.3436 571.056 45.2334 510.18 27.5432C492.705 22.5438 473.693 18.1213 452.953 16.7753C422.228 14.6602 398.223 19.8518 377.867 30.0429C311.422 63.3081 284.345 138.683 225.198 138.683C180.837 138.683 132.828 95.035 89.8121 99.6498C56.5897 103.111 16.4541 143.106 14.9178 206.944C12.0372 318.469 101.718 324.046 130.14 406.728C134.749 419.995 137.629 435.378 137.821 453.453C138.205 499.793 119.77 506.139 122.074 560.363C122.074 567.285 122.074 574.015 123.803 580.553Z" stroke="url(#paint22_linear_15_457)" stroke-miterlimit="10"/>
<path d="M124.379 584.975C125.531 591.897 127.451 596.897 130.908 603.627C147.039 634.392 177.381 669.196 216.748 669.196C287.418 669.196 274.743 575.361 355.015 574.015C388.813 573.438 455.834 632.662 524.391 631.316C568.752 630.547 596.789 606.319 607.543 567.862C610.616 556.709 612.344 544.403 612.728 531.328C614.84 401.921 527.656 440.954 527.656 332.121C527.656 233.48 613.88 138.107 611.768 106.187C610.231 81.9596 578.161 36.7729 515.557 18.1213C497.89 12.9296 478.494 9.08395 456.794 8.31481C424.724 7.16111 399.375 13.891 378.251 25.2358C308.926 62.1544 283.193 143.106 223.662 143.106C180.261 143.106 129.948 93.689 85.0111 95.9964C50.4445 97.727 8.58053 137.914 8.00442 203.868C6.2761 318.662 104.023 325.584 133.212 407.689C138.013 421.149 140.894 436.724 141.086 454.991C141.278 502.293 121.882 507.485 123.034 563.824C123.226 571.323 123.226 578.245 124.379 584.975Z" stroke="url(#paint23_linear_15_457)" stroke-miterlimit="10"/>
<path d="M125.147 589.59C128.412 631.316 167.203 669.773 209.643 669.773C282.425 669.773 268.214 571.9 351.366 571.9C385.933 571.9 455.45 634.585 527.08 634.585C586.803 634.585 619.641 595.551 619.641 535.751C619.641 402.498 524.583 442.685 524.583 333.083C524.583 232.903 616.761 135.799 616.761 102.534C616.761 70.4227 564.911 0.815827 460.635 0.815832C317.76 0.815838 300.476 148.49 222.125 148.49C179.877 148.49 127.259 93.3046 80.2104 93.3046C44.1075 93.3046 0.899269 133.684 0.899272 201.945C0.899278 340.005 144.351 328.084 144.351 457.683C144.351 505.947 123.995 510.177 123.995 568.439C124.187 575.361 124.571 582.476 125.147 589.59Z" stroke="url(#paint24_linear_15_457)" stroke-miterlimit="10"/>
</g>
<defs>
<linearGradient id="paint0_linear_15_457" x1="325.054" y1="656.16" x2="325.054" y2="35.3374" gradientUnits="userSpaceOnUse">
<stop stop-color="#FFD110" stop-opacity="0"/>
<stop offset="0.286458" stop-color="#109BFF"/>
<stop offset="0.614583" stop-color="#FF0469"/>
<stop offset="1" stop-color="#04DA00" stop-opacity="0"/>
</linearGradient>
<linearGradient id="paint1_linear_15_457" x1="325.032" y1="656.737" x2="325.032" y2="40.1439" gradientUnits="userSpaceOnUse">
<stop stop-color="#FFD110" stop-opacity="0"/>
<stop offset="0.286458" stop-color="#109BFF"/>
<stop offset="0.614583" stop-color="#FF0469"/>
<stop offset="1" stop-color="#04DA00" stop-opacity="0"/>
</linearGradient>
<linearGradient id="paint2_linear_15_457" x1="324.958" y1="657.314" x2="324.958" y2="44.7581" gradientUnits="userSpaceOnUse">
<stop stop-color="#FFD110" stop-opacity="0"/>
<stop offset="0.286458" stop-color="#109BFF"/>
<stop offset="0.614583" stop-color="#FF0469"/>
<stop offset="1" stop-color="#04DA00" stop-opacity="0"/>
</linearGradient>
<linearGradient id="paint3_linear_15_457" x1="325.519" y1="657.89" x2="325.519" y2="49.7567" gradientUnits="userSpaceOnUse">
<stop stop-color="#FFD110" stop-opacity="0"/>
<stop offset="0.286458" stop-color="#109BFF"/>
<stop offset="0.614583" stop-color="#FF0469"/>
<stop offset="1" stop-color="#04DA00" stop-opacity="0"/>
</linearGradient>
<linearGradient id="paint4_linear_15_457" x1="325.518" y1="658.467" x2="325.518" y2="53.9865" gradientUnits="userSpaceOnUse">
<stop stop-color="#FFD110" stop-opacity="0"/>
<stop offset="0.286458" stop-color="#109BFF"/>
<stop offset="0.614583" stop-color="#FF0469"/>
<stop offset="1" stop-color="#04DA00" stop-opacity="0"/>
</linearGradient>
<linearGradient id="paint5_linear_15_457" x1="325.442" y1="659.043" x2="325.442" y2="58.7926" gradientUnits="userSpaceOnUse">
<stop stop-color="#FFD110" stop-opacity="0"/>
<stop offset="0.286458" stop-color="#109BFF"/>
<stop offset="0.614583" stop-color="#FF0469"/>
<stop offset="1" stop-color="#04DA00" stop-opacity="0"/>
</linearGradient>
<linearGradient id="paint6_linear_15_457" x1="324.664" y1="659.62" x2="324.664" y2="63.4069" gradientUnits="userSpaceOnUse">
<stop stop-color="#FFD110" stop-opacity="0"/>
<stop offset="0.286458" stop-color="#109BFF"/>
<stop offset="0.614583" stop-color="#FF0469"/>
<stop offset="1" stop-color="#04DA00" stop-opacity="0"/>
</linearGradient>
<linearGradient id="paint7_linear_15_457" x1="324.988" y1="660.197" x2="324.988" y2="68.5977" gradientUnits="userSpaceOnUse">
<stop stop-color="#FFD110" stop-opacity="0"/>
<stop offset="0.286458" stop-color="#109BFF"/>
<stop offset="0.614583" stop-color="#FF0469"/>
<stop offset="1" stop-color="#04DA00" stop-opacity="0"/>
</linearGradient>
<linearGradient id="paint8_linear_15_457" x1="324.183" y1="660.773" x2="324.183" y2="73.4042" gradientUnits="userSpaceOnUse">
<stop stop-color="#FFD110" stop-opacity="0"/>
<stop offset="0.286458" stop-color="#109BFF"/>
<stop offset="0.614583" stop-color="#FF0469"/>
<stop offset="1" stop-color="#04DA00" stop-opacity="0"/>
</linearGradient>
<linearGradient id="paint9_linear_15_457" x1="323.203" y1="661.35" x2="323.203" y2="77.5632" gradientUnits="userSpaceOnUse">
<stop stop-color="#FFD110" stop-opacity="0"/>
<stop offset="0.286458" stop-color="#109BFF"/>
<stop offset="0.614583" stop-color="#FF0469"/>
<stop offset="1" stop-color="#04DA00" stop-opacity="0"/>
</linearGradient>
<linearGradient id="paint10_linear_15_457" x1="322.085" y1="661.734" x2="322.085" y2="80.0297" gradientUnits="userSpaceOnUse">
<stop stop-color="#FFD110" stop-opacity="0"/>
<stop offset="0.286458" stop-color="#109BFF"/>
<stop offset="0.614583" stop-color="#FF0469"/>
<stop offset="1" stop-color="#04DA00" stop-opacity="0"/>
</linearGradient>
<linearGradient id="paint11_linear_15_457" x1="321.262" y1="662.503" x2="321.262" y2="78.9254" gradientUnits="userSpaceOnUse">
<stop stop-color="#FFD110" stop-opacity="0"/>
<stop offset="0.286458" stop-color="#109BFF"/>
<stop offset="0.614583" stop-color="#FF0469"/>
<stop offset="1" stop-color="#04DA00" stop-opacity="0"/>
</linearGradient>
<linearGradient id="paint12_linear_15_457" x1="320.272" y1="663.081" x2="320.272" y2="75.7024" gradientUnits="userSpaceOnUse">
<stop stop-color="#FFD110" stop-opacity="0"/>
<stop offset="0.286458" stop-color="#109BFF"/>
<stop offset="0.614583" stop-color="#FF0469"/>
<stop offset="1" stop-color="#04DA00" stop-opacity="0"/>
</linearGradient>
<linearGradient id="paint13_linear_15_457" x1="319.143" y1="663.658" x2="319.143" y2="71.4684" gradientUnits="userSpaceOnUse">
<stop stop-color="#FFD110" stop-opacity="0"/>
<stop offset="0.286458" stop-color="#109BFF"/>
<stop offset="0.614583" stop-color="#FF0469"/>
<stop offset="1" stop-color="#04DA00" stop-opacity="0"/>
</linearGradient>
<linearGradient id="paint14_linear_15_457" x1="318.026" y1="664.043" x2="318.026" y2="66.6847" gradientUnits="userSpaceOnUse">
<stop stop-color="#FFD110" stop-opacity="0"/>
<stop offset="0.286458" stop-color="#109BFF"/>
<stop offset="0.614583" stop-color="#FF0469"/>
<stop offset="1" stop-color="#04DA00" stop-opacity="0"/>
</linearGradient>
<linearGradient id="paint15_linear_15_457" x1="316.801" y1="664.812" x2="316.801" y2="61.7758" gradientUnits="userSpaceOnUse">
<stop stop-color="#FFD110" stop-opacity="0"/>
<stop offset="0.286458" stop-color="#109BFF"/>
<stop offset="0.614583" stop-color="#FF0469"/>
<stop offset="1" stop-color="#04DA00" stop-opacity="0"/>
</linearGradient>
<linearGradient id="paint16_linear_15_457" x1="315.658" y1="665.197" x2="315.657" y2="55.8534" gradientUnits="userSpaceOnUse">
<stop stop-color="#FFD110" stop-opacity="0"/>
<stop offset="0.286458" stop-color="#109BFF"/>
<stop offset="0.614583" stop-color="#FF0469"/>
<stop offset="1" stop-color="#04DA00" stop-opacity="0"/>
</linearGradient>
<linearGradient id="paint17_linear_15_457" x1="315.007" y1="665.774" x2="315.007" y2="50.2041" gradientUnits="userSpaceOnUse">
<stop stop-color="#FFD110" stop-opacity="0"/>
<stop offset="0.286458" stop-color="#109BFF"/>
<stop offset="0.614583" stop-color="#FF0469"/>
<stop offset="1" stop-color="#04DA00" stop-opacity="0"/>
</linearGradient>
<linearGradient id="paint18_linear_15_457" x1="313.962" y1="666.352" x2="313.962" y2="44.1932" gradientUnits="userSpaceOnUse">
<stop stop-color="#FFD110" stop-opacity="0"/>
<stop offset="0.286458" stop-color="#109BFF"/>
<stop offset="0.614583" stop-color="#FF0469"/>
<stop offset="1" stop-color="#04DA00" stop-opacity="0"/>
</linearGradient>
<linearGradient id="paint19_linear_15_457" x1="313.046" y1="666.929" x2="313.046" y2="37.8436" gradientUnits="userSpaceOnUse">
<stop stop-color="#FFD110" stop-opacity="0"/>
<stop offset="0.286458" stop-color="#109BFF"/>
<stop offset="0.614583" stop-color="#FF0469"/>
<stop offset="1" stop-color="#04DA00" stop-opacity="0"/>
</linearGradient>
<linearGradient id="paint20_linear_15_457" x1="311.978" y1="667.698" x2="311.978" y2="31.6365" gradientUnits="userSpaceOnUse">
<stop stop-color="#FFD110" stop-opacity="0"/>
<stop offset="0.286458" stop-color="#109BFF"/>
<stop offset="0.614583" stop-color="#FF0469"/>
<stop offset="1" stop-color="#04DA00" stop-opacity="0"/>
</linearGradient>
<linearGradient id="paint21_linear_15_457" x1="311.415" y1="668.084" x2="311.415" y2="23.6174" gradientUnits="userSpaceOnUse">
<stop stop-color="#FFD110" stop-opacity="0"/>
<stop offset="0.286458" stop-color="#109BFF"/>
<stop offset="0.614583" stop-color="#FF0469"/>
<stop offset="1" stop-color="#04DA00" stop-opacity="0"/>
</linearGradient>
<linearGradient id="paint22_linear_15_457" x1="310.787" y1="668.661" x2="310.787" y2="16.4169" gradientUnits="userSpaceOnUse">
<stop stop-color="#FFD110" stop-opacity="0"/>
<stop offset="0.286458" stop-color="#109BFF"/>
<stop offset="0.614583" stop-color="#FF0469"/>
<stop offset="1" stop-color="#04DA00" stop-opacity="0"/>
</linearGradient>
<linearGradient id="paint23_linear_15_457" x1="310.371" y1="669.238" x2="310.371" y2="8.29635" gradientUnits="userSpaceOnUse">
<stop stop-color="#FFD110" stop-opacity="0"/>
<stop offset="0.286458" stop-color="#109BFF"/>
<stop offset="0.614583" stop-color="#FF0469"/>
<stop offset="1" stop-color="#04DA00" stop-opacity="0"/>
</linearGradient>
<linearGradient id="paint24_linear_15_457" x1="310.267" y1="669.816" x2="310.267" y2="0.926636" gradientUnits="userSpaceOnUse">
<stop stop-color="#FFD110" stop-opacity="0"/>
<stop offset="0.286458" stop-color="#109BFF"/>
<stop offset="0.614583" stop-color="#FF0469"/>
<stop offset="1" stop-color="#04DA00" stop-opacity="0"/>
</linearGradient>
</defs>
</svg>
