<svg width="24" height="23" viewBox="0 0 24 23" fill="none" xmlns="http://www.w3.org/2000/svg">
<path d="M19.3044 17.7393C17.8665 17.7393 16.6957 18.91 16.6957 20.3479C16.6957 21.7858 17.8664 22.9567 19.3044 22.9567C20.7423 22.9567 21.913 21.7859 21.913 20.3479C21.913 18.91 20.7423 17.7393 19.3044 17.7393ZM19.3044 21.9132C18.4414 21.9132 17.7391 21.2109 17.7391 20.3479C17.7391 19.485 18.4414 18.7827 19.3044 18.7827C20.1673 18.7827 20.8696 19.485 20.8696 20.3479C20.8696 21.2109 20.1673 21.9132 19.3044 21.9132Z" fill="white"/>
<path d="M8.86955 17.7393C7.43165 17.7393 6.26086 18.91 6.26086 20.3479C6.26086 21.7858 7.43165 22.9567 8.86955 22.9567C10.3074 22.9567 11.4782 21.7859 11.4782 20.348C11.4782 18.9101 10.3075 17.7393 8.86955 17.7393ZM8.86955 21.9132C8.00657 21.9132 7.30433 21.2109 7.30433 20.3479C7.30433 19.485 8.00657 18.7827 8.86955 18.7827C9.73252 18.7827 10.4348 19.485 10.4348 20.3479C10.4348 21.2109 9.73252 21.9132 8.86955 21.9132Z" fill="white"/>
<path d="M21.3913 15.6522H9.34852C8.10989 15.6522 7.0341 14.7704 6.79095 13.5548L4.16348 0.419479C4.11442 0.175305 3.90053 0 3.6522 0H0.521756C0.233756 0 0 0.233756 0 0.521756C0 0.809757 0.233756 1.04351 0.521756 1.04351H3.22435L5.7673 13.7604C6.10749 15.4612 7.61426 16.6957 9.34852 16.6957H21.3913C21.6793 16.6957 21.9131 16.462 21.9131 16.174C21.9131 15.886 21.6793 15.6522 21.3913 15.6522Z" fill="white"/>
<path d="M23.8695 3.30695C23.7704 3.19528 23.6285 3.13062 23.4782 3.13062H4.69558C4.40758 3.13062 4.17383 3.36437 4.17383 3.65237C4.17383 3.94037 4.40758 4.17408 4.69558 4.17408H22.8876L22.1457 10.1073C22.0476 10.8889 21.3797 11.4784 20.592 11.4784H6.2608C5.9728 11.4784 5.73905 11.7122 5.73905 12.0002C5.73905 12.2882 5.9728 12.5219 6.2608 12.5219H20.592C21.9046 12.5219 23.018 11.54 23.1808 10.2367L23.9958 3.71703C24.0146 3.56883 23.9687 3.41857 23.8695 3.30695Z" fill="white"/>
</svg>
