<svg width="165" height="20" viewBox="0 0 165 20" fill="none" xmlns="http://www.w3.org/2000/svg">
<path d="M112.444 8.34875H100.793L102.695 5.1255C103.488 3.77807 104.201 3.30251 105.364 3.30251C106.552 3.30251 106.949 4.25363 106.315 5.41612H118.204L119.393 3.30251C120.265 1.71731 120.265 0 118.124 0H97.1734C95.2711 0 93.7916 0.237781 92.682 2.06077L88.9831 8.34875C87.9528 10.1717 88.032 11.6513 90.5683 11.6513H102.616L100.661 15.1123C100.106 16.0634 99.3927 16.6975 97.7546 16.6975C96.3279 16.6975 96.4072 15.7464 97.0413 14.8217H85.2315L83.8048 17.1731C82.9329 18.679 83.6463 20 85.7071 20H106.5C108.402 20 110.04 19.1281 110.991 17.5694L114.531 11.6513C115.271 10.1717 114.875 8.34875 112.444 8.34875Z" fill="white"/>
<path d="M163.039 3.88403C162.088 3.88403 161.295 4.65022 161.295 5.57492C161.295 6.52604 162.088 7.2658 163.039 7.2658C163.99 7.2658 164.783 6.49962 164.783 5.57492C164.756 4.65022 163.99 3.88403 163.039 3.88403ZM163.039 6.94876C162.246 6.94876 161.639 6.3411 161.639 5.57492C161.639 4.83516 162.273 4.22749 163.039 4.22749C163.805 4.22749 164.439 4.83516 164.439 5.57492C164.439 6.3411 163.805 6.94876 163.039 6.94876Z" fill="white"/>
<path d="M85.6021 0H67.7949C65.3643 0 62.1939 0 60.318 3.30251L52.4449 16.6975C51.3352 18.5205 52.2863 20 54.3471 20H75.034C77.1476 20 78.4951 19.3659 80.1595 16.6975L88.0327 3.30251C89.0631 1.5852 87.4779 0 85.6021 0ZM75.5889 5.1255L69.6972 15.1123C68.9046 16.539 68.1912 16.6975 66.3947 16.6975C64.5717 16.6975 64.1225 16.0634 64.6509 15.1123L70.6219 5.1255C71.4937 3.61955 72.5241 3.30251 74.0037 3.30251C75.5096 3.30251 76.3815 3.77807 75.5889 5.1255Z" fill="white"/>
<path d="M54.3989 0H31.572L21.7437 16.6975H0V20H43.8573C46.7635 20 47.7147 18.5733 48.3487 17.4901L50.7001 13.395C51.3342 12.2853 51.3342 11.0436 50.0661 10.3303C51.3342 10.3303 53.0515 9.45839 54.0819 7.66182L56.4333 3.64597C57.6486 1.66447 56.2219 0 54.3989 0ZM42.6684 13.4742L41.4795 15.3501C41.1625 15.9841 40.6077 16.6975 39.2867 16.6975H33.4478L36.4597 11.6513H42.1136C43.144 11.6513 43.144 12.6024 42.6684 13.4742ZM47.6354 5.1255L46.4465 7.02774C46.1295 7.66182 45.5746 8.37517 44.2536 8.37517H38.4148L41.4003 3.32893H47.0806C48.111 3.30251 48.111 4.25363 47.6354 5.1255Z" fill="white"/>
<path d="M163.911 5.12571C163.911 4.96719 163.831 4.80867 163.699 4.72941C163.541 4.65015 163.382 4.65015 163.224 4.65015H162.378V6.52597H162.669V5.65411H163.012L163.567 6.52597H163.884L163.303 5.65411C163.646 5.65411 163.911 5.49559 163.911 5.12571ZM162.986 5.41633H162.669V4.83509H163.171C163.409 4.83509 163.62 4.86151 163.62 5.09929C163.62 5.46917 163.25 5.41633 162.986 5.41633Z" fill="white"/>
<path d="M134.848 3.30251H164.386V0H125.02L113.29 20H140.687L142.642 16.6975H126.975L129.961 11.6513H145.628L147.53 8.34875H131.942L134.848 3.30251Z" fill="white"/>
</svg>
