<svg width="24" height="24" viewBox="0 0 24 24" fill="none" xmlns="http://www.w3.org/2000/svg">
<path d="M23.5851 22.5485L23.5851 22.5486C23.8715 22.8349 23.8715 23.2989 23.5852 23.5852C23.442 23.7285 23.2547 23.8 23.0668 23.8C22.8789 23.8 22.6916 23.7285 22.5485 23.5853L22.5484 23.5852L16.6911 17.7281L16.5621 17.5991L16.4218 17.7157C14.7055 19.143 12.5021 20.0024 10.1012 20.0024C4.64174 20.0024 0.199878 15.5607 0.199878 10.1016C0.199878 4.64199 4.64175 0.2 10.1012 0.2C15.5605 0.2 20.0024 4.64199 20.0024 10.1016C20.0024 12.5025 19.1428 14.7059 17.7156 16.4222L17.5989 16.5625L17.7279 16.6915L23.5851 22.5485ZM10.1012 1.66621C5.44986 1.66621 1.66609 5.45012 1.66609 10.1016C1.66609 14.7527 5.44988 18.5362 10.1012 18.5362C14.7524 18.5362 18.536 14.7526 18.536 10.1016C18.536 5.45012 14.7524 1.66621 10.1012 1.66621Z" fill="white" stroke="#191919" stroke-width="0.4"/>
</svg>
