<svg width="439" height="622" viewBox="0 0 439 622" fill="none" xmlns="http://www.w3.org/2000/svg">
<path opacity="0.5" fill-rule="evenodd" clip-rule="evenodd" d="M1078.31 503.159L1076.93 505.556C1062.37 530.269 1043.49 551.904 1020.97 570.277C997.382 589.489 970.95 603.57 942.483 612.118C877.954 631.802 807.878 621.847 739.645 583.034C596.949 502.097 430.128 544.972 295.591 579.55L294.375 579.862C233.795 595.726 176.434 610.542 130.493 611.617C79.4645 612.949 46.4536 597.667 26.541 563.22C5.82418 527.147 -2.81206 483.233 1.16011 432.072C4.05616 391.33 14.9917 346.224 33.4635 297.624C63.2658 219.302 103.698 157.814 108.279 150.848L108.279 150.847C108.532 150.463 108.676 150.244 108.702 150.199C139.367 110.672 173.34 77.9951 209.431 53.2223C243.175 29.9994 279.825 12.8122 318.317 2.49867C320.723 1.85408 323.129 1.20949 325.409 0.782786C248.617 20.0689 174.953 66.1439 109.356 150.576C109.32 150.638 109.146 150.905 108.843 151.369C103.856 159.02 63.9814 220.182 34.2429 297.784C5.10093 373.922 -19.6254 481.66 27.2283 563.036C46.831 597.014 79.7161 612.514 130.527 611.055C176.593 609.763 233.828 595.164 294.282 579.519C361.954 561.939 438.653 542.309 514.819 537.188C597.851 531.701 668.321 544.806 729.842 577.104C592.853 500.376 432.863 541.65 304.014 574.89L304.014 574.89L303.571 575.004C301.794 575.458 300.021 575.911 298.25 576.363C241.956 590.744 188.874 604.305 145.968 605.445C96.8755 606.443 65.0798 591.572 45.9713 558.751C26.1845 524.087 17.7908 481.765 21.6281 432.851C24.5489 393.575 35.0396 350.245 52.7229 303.515C81.6628 227.953 120.724 168.277 124.599 162.357C124.786 162.071 124.891 161.91 124.909 161.88C154.349 123.971 187.006 92.5671 221.689 68.7243C254.024 46.4313 289.392 29.9562 326.291 19.8852C339.351 16.3859 352.595 13.574 366.241 11.5752C280.584 24.5806 198.002 68.9931 125.563 162.257C125.526 162.32 125.354 162.585 125.055 163.044C120.198 170.506 81.9688 229.244 53.5024 303.674C25.56 376.728 1.75695 480.351 46.7845 558.349C65.6751 591.044 97.2529 605.789 145.909 604.54C190.165 603.364 245.121 589.192 303.169 574.191C368.091 557.348 441.822 538.329 515.147 533.601C591.354 528.687 656.623 539.833 713.749 567.792C583.954 499.812 433.759 538.623 312.549 570.02C256.563 584.468 204.014 597.996 161.442 599.272C114.253 600.497 83.7642 586.381 65.7115 554.751C46.5109 521.587 38.5777 480.983 42.1881 433.972C45.0077 396.381 55.1795 354.61 72.1664 310.092C99.9426 237.523 137.232 180.475 140.993 174.721C141.178 174.438 141.282 174.279 141.3 174.248C151.209 161.541 161.446 149.63 172.001 138.526C161.701 149.456 151.668 161.187 141.895 173.72C141.836 173.823 141.605 174.186 141.215 174.797L141.214 174.798L141.214 174.799C139.127 178.077 132.494 188.493 123.378 204.282C109.164 228.903 89.2117 266.48 72.7617 309.564C46.0188 379.534 23.2649 478.824 66.3404 553.662C84.519 585.074 114.79 599.064 161.418 597.806C202.529 596.78 253.238 583.853 307.142 570.11C308.891 569.665 310.643 569.218 312.399 568.771L316.154 567.809C377.607 552.063 446.618 534.381 515.601 529.796C589.638 524.957 652.526 536.061 707.872 563.408C583.131 496.735 438.234 534.119 321.561 564.474C319.86 564.907 318.162 565.338 316.467 565.77L316.305 565.811L316.305 565.811C264.793 578.913 216.159 591.284 176.859 592.195C131.697 593.429 102.642 579.85 85.0834 549.377C66.8127 517.621 59.1221 478.61 62.5057 433.501C65.2242 397.595 74.7332 357.475 91.2754 314.734C117.968 244.842 154.249 189.848 157.36 185.132C157.491 184.933 157.564 184.824 157.574 184.806C210.081 117.51 272.346 73.5688 342.365 54.4397C402.635 38.1069 470.627 39.5959 544.531 59.0238C679.81 94.4221 810.831 181.978 906.631 246.004C909.699 248.035 912.741 250.052 915.755 252.05C936.282 265.658 955.485 278.388 972.255 288.83C1008.76 311.649 1031.33 345.015 1037.14 385.266C1042.19 421.301 1033.75 460.583 1013.12 496.315L1011.86 498.494C985.168 543.218 942.075 577.602 893.171 592.363C841.12 608.158 785.113 602.33 730.007 575.255C864.556 647.325 981.044 587.638 1032.95 500.211L1034.21 498.032C1063.57 447.171 1072.73 380.525 1039.41 328.28C1050.11 344.752 1057.04 363.325 1059.9 383.589C1065.48 420.218 1056.37 461.151 1034.73 498.627L1033.35 501.024C1005.4 547.927 960.303 583.769 909.555 599.208C854.766 615.92 795.755 609.321 737.875 580.695C878.503 656.545 1000.21 594.19 1054.44 502.741L1055.7 500.562C1096.33 430.186 1099.83 330.529 1011.7 275.868C992.978 264.284 971.465 249.929 948.566 234.65L948.455 234.576C945.73 232.757 942.985 230.925 940.222 229.084C840.609 162.471 709.464 75.0939 573.143 32.7854C709.867 74.9414 841.076 162.396 938.768 227.511L938.769 227.512L940.474 228.648C943.234 230.488 945.976 232.318 948.699 234.135L948.811 234.209L948.82 234.215C971.717 249.494 993.23 263.849 1011.95 275.433C1051.94 300.264 1076.37 336.447 1082.41 380.319C1088.42 419.229 1079.21 461.846 1056.69 500.847L1055.31 503.244C1026.23 552.108 979.127 589.408 926.191 605.617C867.005 623.585 802.899 615.679 740.197 582.769C889.299 667.215 1018.99 601.878 1076.27 505.178L1077.66 502.782C1119.92 429.573 1123.44 325.86 1031.73 268.843C1009.88 255.358 984.307 238.267 957.332 220.079L956.301 219.391C855.532 152.218 724.285 64.7281 587.148 19.4257C725.069 64.6853 856.88 152.359 955.972 218.27L957.71 219.425C961.379 221.858 965.021 224.276 968.629 226.671L968.773 226.766L968.781 226.771C991.761 242.025 1013.37 256.368 1032.11 268.189C1073.62 293.901 1098.86 331.71 1105.58 377.426C1111.49 418.021 1101.71 462.633 1078.31 503.159ZM543.364 24.304C553.311 26.8765 563.241 29.712 573.143 32.7854C564.156 30.0143 555.145 27.4389 546.118 25.0785C545.202 24.8164 544.284 24.5582 543.364 24.304ZM525.014 19.8665C531.136 21.2425 537.253 22.7236 543.364 24.304C537.273 22.6204 531.109 21.1137 525.014 19.8665ZM992.13 282.584C1012.98 295.556 1028.48 311.143 1039.41 328.28C1027.9 310.562 1012.04 295.274 992.222 282.928C972.119 270.449 948.596 254.835 923.674 238.122C823.642 171.363 686.645 80.0664 545.383 42.9563C468.143 22.7646 397.343 21.1069 334.323 38.1764C274.246 54.4244 219.851 88.1875 172.001 138.526C270.191 34.3224 392.633 2.85447 545.509 42.7384C686.553 79.7227 823.55 171.019 923.582 237.778C948.504 254.491 972.026 270.106 992.13 282.584ZM92.1469 315.237C107.809 274.021 126.88 237.969 140.466 214.438C147.107 202.935 152.493 194.44 155.463 189.757C157.105 187.166 158.009 185.742 157.976 185.619C256.652 58.9879 382.877 17.9844 544.12 60.239C679.055 95.7294 810.202 183.068 906.002 247.093C908.318 248.628 910.623 250.158 912.916 251.679C934.129 265.751 954.27 279.113 971.626 289.92C1052.48 340.086 1049.36 431.537 1012.12 496.03L1010.99 497.991C961.956 580.484 853.322 637.006 727.066 572.939C777.586 596.142 828.872 600.706 876.627 586.298C923.251 571.964 964.776 539.289 990.119 496.4L991.377 494.221C1011.13 460.013 1019.25 422.29 1014.07 388.502C1008.71 349.97 987.292 318.137 952.187 296.417C936.264 286.468 918.097 274.35 898.637 261.369L898.518 261.289C895.578 259.328 892.609 257.348 889.614 255.352L888.674 254.726L888.674 254.726L888.673 254.725C797.279 193.831 672.306 110.564 543.579 76.7757C535.15 74.5847 526.799 72.6337 518.529 70.9233C391.541 44.0012 288.147 73.9076 204.223 161.747C193.712 172.635 183.549 184.404 173.747 197.049C173.728 197.081 173.623 197.242 173.436 197.527L173.435 197.528L173.434 197.529C169.801 203.071 135.563 255.291 110.375 321.403C94.6218 362.276 85.4654 400.275 82.9401 434.84C79.5656 477.921 86.9215 514.995 104.48 545.468C121.235 574.315 149.075 587.484 192.208 586.241C230.518 585.214 277.785 573.058 328.022 560.137L330.54 559.49C439.467 531.188 573.815 496.414 691.046 554.216C640.33 531.061 582.702 521.842 515.929 526.209C448.597 530.62 381.052 547.982 321.285 563.443L318.831 564.075C266.17 577.645 216.814 590.362 176.8 591.29C131.983 592.432 103.145 578.978 85.8966 548.975C44.6472 477.516 66.4778 382.341 92.1469 315.237ZM174.342 196.521C184.017 184.064 193.975 172.474 204.223 161.747C247.431 116.994 296.518 87.1314 350.523 72.5131C401.164 58.7821 457.649 58.3325 518.529 70.9233C526.596 72.6337 534.758 74.5733 543.017 76.742C671.527 110.405 796.501 193.672 887.895 254.566L888.834 255.192C911.577 270.647 933.265 284.912 951.626 296.384C1028.9 344.193 1025.8 431.588 990.196 493.248L989.064 495.209C942.503 573.908 838.88 627.804 718.496 567.097C766.492 588.992 815.236 593.462 860.461 579.579C904.897 566.015 944.418 534.798 968.629 493.87L969.761 491.909C988.631 459.227 996.185 423.498 991.745 390.431C986.509 353.709 966.017 323.285 932.656 302.572C914.949 291.477 894.569 277.967 872.789 263.359L872.781 263.354C785.537 205.14 666 125.378 542.819 93.1867C475.335 75.7223 413.428 74.2603 358.657 89.1198C294.606 106.466 237.883 146.344 190.113 207.95C190.094 207.983 189.989 208.143 189.804 208.425C186.291 213.792 153.82 263.39 129.794 326.514C114.955 365.3 106.118 401.74 103.693 434.621C100.672 475.581 107.567 510.937 124.196 540.002C140.112 567.784 166.771 579.98 207.967 579.071C244.479 578.16 289.361 566.641 337.204 554.361L339.678 553.726L339.968 553.652C443.753 526.903 571.714 493.924 683.324 548.866C634.97 526.908 579.891 518.229 516.165 522.278C452.266 526.398 388.065 542.978 331.292 557.64L331.292 557.64L330.297 557.897C279.341 571.182 231.041 583.387 192.309 584.556C149.519 585.707 121.989 573.008 105.453 544.287C66.1554 475.989 86.937 385.147 111.407 321.127C126.498 281.906 144.688 247.379 157.645 224.937C162.326 216.829 166.326 210.245 169.236 205.454L169.237 205.454L169.237 205.453L169.237 205.453L169.238 205.452C172.426 200.203 174.307 197.108 174.342 196.521ZM174.732 235.093C162.279 256.664 145.094 289.447 130.666 327.017C107.27 388.171 87.5376 474.68 125.101 539.943C140.708 567.256 167.148 579.326 207.783 578.384C244.705 577.331 290.725 565.554 339.276 552.913L340.316 552.645C394.333 538.721 455.763 522.887 516.585 519.034C583.326 514.73 639.713 525.213 689.143 550.971C689.111 550.952 689.079 550.934 689.046 550.916C579.818 489.015 451.818 522.022 349 548.65L346.51 549.288L346.51 549.288L346.509 549.288C301.071 560.924 258.264 571.886 223.568 572.681C184.399 573.598 159.174 561.94 143.844 535.658C107.797 473.303 126.732 390.691 149.179 332.186C172.105 271.78 203.541 224.261 206.447 219.868C206.579 219.668 206.652 219.558 206.663 219.539C252.11 160.949 306.017 122.931 366.848 106.632C419.088 92.6347 477.969 93.8024 541.992 110.721C659.067 141.419 772.759 217.227 855.771 272.707C858.891 274.77 861.981 276.816 865.037 278.838C882.37 290.31 898.586 301.044 912.713 309.941C944.549 329.774 963.894 358.663 969.012 393.575C973.244 424.488 966.008 458.657 948.145 489.597L947.013 491.558C923.934 530.525 886.417 560.284 844.169 573.077C797.438 587.342 746.883 581.181 697.424 555.465C697.506 555.511 697.588 555.558 697.67 555.604C817.357 623.543 921.508 570.957 967.632 493.584L968.764 491.624C1002.73 432.795 1005.69 349.675 932.119 304.005C914.63 293.036 894.032 279.4 872.252 264.792L872.244 264.787C785.001 206.574 665.464 126.811 542.626 94.5277C395.689 56.1753 280.621 93.4526 190.859 208.671C190.823 208.733 190.662 208.982 190.385 209.411C188.698 212.017 182.727 221.246 174.732 235.093ZM149.925 332.907C163.565 297.206 180.087 266.074 191.911 245.593C197.231 236.379 201.577 229.387 204.23 225.119L204.23 225.119C206.031 222.221 207.052 220.579 207.065 220.352C292.434 110.731 401.751 75.3628 541.363 111.81C658.438 142.509 771.912 218.191 854.924 273.671C858.041 275.731 861.128 277.775 864.181 279.796L864.183 279.797C881.518 291.271 897.737 302.006 911.866 310.904C981.731 354.437 979.133 433.408 946.804 489.403L945.798 491.147C902.589 563.999 805.529 613.405 693.558 552.553C738.84 574.639 785.008 579.388 827.659 566.451C867.501 554.302 903.233 526.126 925.179 489.12L926.186 487.377C943.168 457.963 950.303 425.478 946.531 396.283C941.655 362.964 923.115 335.701 893.022 316.874C878.4 307.897 861.431 296.579 843.596 284.683L841.311 283.159L839.004 281.62L837.381 280.539C758.835 228.229 651.62 156.825 541.291 128.037C480.478 112.1 424.656 110.666 375.04 124.144C317.302 139.614 265.994 175.647 222.87 231.22C222.859 231.239 222.789 231.344 222.665 231.534L222.663 231.537L222.663 231.537C219.911 235.738 190.42 280.754 168.439 338.077C147.316 393.28 129.304 471.777 163.4 530.971C177.8 555.844 201.81 567.092 238.95 566.165C271.143 565.499 310.661 555.396 352.682 544.652L352.682 544.652L355.569 543.914L357.886 543.322C453.621 518.577 572.727 487.926 675.167 542.748C629.61 520.508 577.577 511.535 516.913 515.447C458.634 519.275 400.024 534.242 348.38 547.711C252.778 572.406 177.328 591.885 144.657 535.256C108.702 473.245 127.729 390.977 149.925 332.907ZM208.998 255.748C197.803 275.14 182.162 304.747 169.31 338.58C148.313 393.565 130.21 471.718 164.213 530.569C195.15 584.163 266.819 565.696 357.392 542.165C447.097 518.976 557.177 490.637 655.113 531.802C560.998 488.205 453.67 515.765 366.647 538.212C324.969 549.011 285.698 559.165 254.207 559.867C219.096 560.803 196.175 550.184 182.612 526.376C150.343 470.56 167.432 396.178 187.48 343.841C209.14 287.205 238.733 242.993 239.202 242.683C280.004 190.127 328.369 156.172 383.14 141.312C430.007 128.571 483.021 129.837 540.28 144.884C645.1 172.403 746.612 240.122 820.997 289.744L821.803 290.281C840.222 302.659 857.895 314.315 872.896 323.556C901.589 341.285 918.856 367.232 923.397 398.614C927.236 426.686 920.672 457.176 904.57 485.065L903.564 486.808C882.749 521.853 849.147 548.353 811.023 560.042C773.585 571.47 733.42 568.331 693.791 551.295C796.234 601.769 884.252 555.559 924.09 488.491L925.096 486.748C955.664 433.802 958.244 358.888 891.957 317.712C877.842 309.046 861.711 298.297 844.438 286.787L844.236 286.652C842.153 285.264 840.054 283.865 837.94 282.458L836.218 281.311C757.684 229.009 650.727 157.777 540.444 129.001C407.939 94.3326 304.247 128.01 223.397 231.815C223.384 232.043 222.398 233.623 220.668 236.397C218.135 240.457 214.006 247.075 208.998 255.748ZM188.696 344.252C200.977 312.414 215.737 284.332 226.304 266.03C234.229 252.304 239.696 243.84 240.04 243.748C316.621 145.322 414.564 113.554 539.743 146.317C644.346 173.711 745.857 241.429 820.241 291.051L821.048 291.589C826.298 295.031 831.468 298.45 836.523 301.793L836.529 301.798C849.328 310.263 861.389 318.24 872.141 324.864C934.849 363.683 932.288 434.541 903.355 484.654L902.474 486.179C864.786 549.524 781.583 593.291 684.46 545.369C721.856 561.368 759.519 564.213 794.731 553.541C830.667 542.623 862.392 517.362 881.948 484.496L882.829 482.971C898.05 456.607 904.295 427.676 900.355 401.289C896.148 371.843 879.594 347.178 852.643 330.456C842.538 324.206 831.241 316.674 819.24 308.673L819.238 308.671L819.223 308.661L819.2 308.646L819.154 308.615C814.403 305.447 809.542 302.206 804.601 298.942C734.376 252.007 638.358 187.856 539.143 161.949C484.876 147.758 435.013 146.568 390.896 158.573C339.218 172.603 293.67 204.699 255.191 254.238C255.188 254.244 255.181 254.254 255.171 254.271C255.157 254.292 255.137 254.322 255.111 254.362C255.077 254.414 255.033 254.481 254.979 254.563C252.345 258.567 225.911 298.751 206.522 349.606C187.547 399.077 171.508 469.125 202.043 521.906C230.006 570.588 294.458 554.055 375.751 533.01C458.088 511.648 559.799 485.26 648.849 527.375C556.114 488.045 451.823 514.95 366.634 536.928L366.496 536.963C280.736 559.205 212.972 576.441 183.769 525.882C151.718 470.192 168.647 396.589 188.696 344.252ZM243.265 276.404C233.327 293.617 219.23 320.048 207.829 350.361C189.106 399.396 173.1 468.883 203.199 521.412C230.583 568.973 293.617 552.8 373.701 532.253L375.257 531.854C456.679 510.726 556.787 484.913 645.249 524.604C560.746 482.442 463.506 507.444 384.855 527.808L384.725 527.842C308.305 547.582 247.905 563.184 221.473 517.437C192.89 467.816 207.88 402.101 225.656 355.714C243.88 307.853 268.542 270.298 271.063 266.457L271.064 266.456L271.153 266.321L271.202 266.246L271.244 266.182L271.26 266.156L271.268 266.143L271.272 266.137C307.428 219.614 350.378 189.504 398.744 176.177C440.33 165.034 487.167 165.93 538.098 179.357C630.798 203.664 720.803 263.564 786.628 307.373L787.491 307.947C789.159 309.058 790.817 310.164 792.466 311.263L792.555 311.322L792.559 311.325L792.561 311.326C807.052 320.986 820.728 330.102 832.609 337.482C889.124 372.435 887 435.993 861.087 480.876L860.206 482.402C841.782 513.307 812.061 537.11 778.313 547.257C743.897 557.762 707.15 554.35 670.856 537.859C764.076 586.528 844.548 544.784 880.389 484.177L881.27 482.652C908.567 435.371 910.767 368.662 851.763 331.982C837.634 323.243 821.05 312.216 803.72 300.467C733.496 253.532 637.478 189.381 538.48 163.6C420.408 132.616 328.091 162.693 256.029 255.303C256.066 255.441 255.238 256.753 253.75 259.114L253.749 259.115L253.749 259.116C251.515 262.658 247.793 268.561 243.265 276.404ZM227.214 356.033C238.044 327.715 251.262 302.809 260.57 286.686C266.381 276.621 270.813 269.654 272.233 267.423C272.503 266.997 272.665 266.744 272.705 266.674C340.247 179.879 427.158 151.619 537.905 180.698C630.213 205.083 719.953 264.808 785.767 308.609L786.736 309.254L787.981 310.084L789.488 311.088L791.711 312.57L791.801 312.63C806.294 322.291 819.972 331.409 831.854 338.789C887.28 373.114 885.098 435.766 859.562 479.996L858.807 481.303C825.684 537.23 752.525 575.894 667.113 534.191C699.378 547.658 731.87 549.864 762.147 540.538C793.489 531.035 821.424 508.816 838.716 479.872L839.471 478.564C863.749 436.513 865.729 377.23 813.01 344.759C800.624 337.027 786.093 327.476 770.816 317.203L769.333 316.214C707.798 275.177 624.04 219.319 537.615 196.799C489.893 184.354 445.99 183.409 407.154 193.815C361.788 205.97 321.656 234.22 287.822 277.726C287.478 277.818 262.85 314.438 245.041 361.386C228.465 404.689 214.398 466.29 241.372 512.657C266.072 555.372 322.354 540.87 393.969 522.418L394.085 522.388C466.188 503.764 554.673 480.913 632.434 516.81C550.641 483.045 459.258 506.704 384.394 526.09L383.458 526.332C308.108 545.79 248.602 561.156 222.881 516.507C194.608 467.356 209.565 402.202 227.214 356.033ZM242.437 511.82C202.21 442.113 254.26 337.367 278.16 295.97C283.288 287.088 287.151 281.095 288.449 279.08C288.711 278.673 288.869 278.428 288.911 278.355C352.403 197.065 433.346 170.589 536.986 197.889C623.748 220.678 708.053 276.897 769.719 318.019L769.72 318.02L769.751 318.041C785.246 328.439 799.777 337.991 812.163 345.723C863.885 377.909 861.847 436.286 837.946 477.684L837.191 478.991C807.036 529.815 741.272 565.38 664.071 531.191C691.696 541.155 719.436 542.278 745.385 534.347C774.666 525.397 800.597 504.636 816.757 477.652L817.512 476.345C840.155 437.126 842.242 381.682 793.009 351.223C784.534 346.119 775.17 339.885 765.18 333.234L765.167 333.226C761.441 330.745 757.627 328.206 753.74 325.646C696.522 287.382 617.615 234.853 536.604 213.646C492.436 202.09 451.466 201.096 415.254 210.983C372.981 222.309 335.666 248.699 304.155 289.189C304.133 289.227 304.034 289.379 303.865 289.64C298.244 298.323 214.413 427.818 260.803 508.188C283.874 548.235 336.423 534.707 403.063 517.404C466.868 500.971 544.734 480.918 614.54 507.986C540.998 482.788 460.017 503.706 393.498 520.888L393.372 520.92C322.45 539.187 266.516 553.594 242.437 511.82ZM262.211 507.258C224.74 442.338 273.074 345.035 295.34 306.469C300.128 298.177 303.664 292.741 304.884 290.865L304.885 290.865C305.139 290.473 305.293 290.237 305.336 290.162C364.091 214.562 439.501 190.12 535.941 215.297C616.735 236.378 695.423 288.781 752.642 327.046C753.449 327.577 754.253 328.107 755.056 328.636C755.908 329.197 756.757 329.757 757.604 330.315L757.605 330.315L757.606 330.317C770.103 338.551 781.953 346.36 792.128 352.749C840.272 382.578 838.47 437.025 816.204 475.59L815.45 476.897C786.47 525.638 722.211 559.401 647.29 522.061C674.964 533.554 702.895 535.555 729.001 527.502C756.437 519.23 780.457 500.27 795.267 475.122L795.896 474.032C816.904 437.646 818.63 386.351 772.757 358.123C763.428 352.228 752.618 345.031 741.185 337.419L740.995 337.292L738.626 335.716C737.86 335.206 737.091 334.694 736.32 334.181C683.334 298.651 610.621 249.988 535.375 230.367C494.199 219.667 456.381 218.749 422.918 227.899C383.957 238.523 349.24 262.927 320.052 300.401C320.029 300.44 319.931 300.591 319.764 300.849L319.762 300.852C314.36 309.202 236.946 428.85 279.923 503.249C301.26 540.261 350.029 527.746 411.858 511.733L412.463 511.577C474.727 495.59 551.02 476.002 618.117 507.45C547.342 478.399 468.087 498.816 403.217 515.528L402.603 515.686L402.462 515.722C336.702 532.606 284.554 545.995 262.211 507.258ZM312.52 316.969C291.889 352.701 247.145 442.781 281.768 502.571C302.61 538.426 350.692 526.095 411.615 510.14C469.284 495.171 539.373 477.157 603.226 499.51C543.448 475.198 476.426 492.544 421.514 506.755L421.054 506.874L420.747 506.954C364.217 521.549 319.231 533.164 299.571 498.905C260.106 430.405 331.538 319.853 336.239 312.578C336.377 312.363 336.458 312.239 336.476 312.207C386.317 248.02 453.101 226.443 534.548 247.901C603.341 265.939 669.886 310.291 718.701 342.827L718.702 342.828L719.428 343.312C731.562 351.48 743.169 359.052 752.94 365.274C795.235 391.146 793.527 438.384 774.28 471.72L773.651 472.81C759.973 495.997 737.74 513.374 712.709 521.001C690.247 527.867 666.407 526.757 642.538 518.056C710.028 549.258 767.577 518.611 793.742 474.241C814.934 438.542 817.095 387.498 772.22 359.556C761.577 352.83 748.881 344.629 735.784 335.614L734.132 334.516C681.169 299.3 609.187 251.437 535.274 232.052C446.158 208.78 376.155 231.404 321.795 301.407C321.715 301.545 321.492 301.909 321.14 302.484L321.139 302.485L321.138 302.487C319.817 304.642 316.688 309.749 312.52 316.969ZM301.198 498.101C269.457 442.881 310.486 360.243 329.481 327.342C333.481 320.414 336.6 315.681 337.752 313.933C338.013 313.537 338.173 313.294 338.219 313.214C388.404 248.934 452.439 228.094 534.447 249.586C602.807 267.373 669.349 311.724 718.164 344.26L718.891 344.745L719.848 345.389L721.806 346.708L721.807 346.708C732.863 354.155 743.302 361.186 752.403 366.708C793.265 392.042 791.624 438.157 772.755 470.84L772.126 471.929C747.554 513.052 693.911 541.602 631.267 511.53C685.118 531.992 730.775 506.419 752.035 470.498L752.539 469.626C770.15 439.122 771.622 395.815 733.283 371.646C727.179 367.926 720.451 363.447 713.28 358.672L713.279 358.671L713.278 358.671C709.845 356.385 706.311 354.032 702.696 351.663C658.265 321.944 596.907 281.289 533.881 264.656C459.415 245.194 398.382 264.863 352.934 323.453C352.916 323.485 352.835 323.61 352.697 323.823L352.697 323.823C348.215 330.766 283.2 431.471 319.253 494C337.18 525.227 378.049 514.712 429.771 501.404L430.066 501.329L431.305 501.013C482.701 487.926 545.599 471.91 600.965 496.796C541.297 474.098 474.993 491.075 420.594 505.156L420.284 505.236C364.444 519.647 320.146 531.079 301.198 498.101ZM346.786 337.624C329.552 367.474 291.987 443.106 321.098 493.322C338.313 523.267 378.493 512.935 429.527 499.812L429.824 499.736C477.952 487.318 536.014 472.377 589.05 490.265C539.797 470.504 484.544 484.671 439.262 496.47C394.148 508.19 355.22 518.252 338.776 489.874C306.037 433.147 365.202 341.71 369.042 335.775C369.154 335.602 369.219 335.502 369.233 335.477C410.504 282.611 465.57 264.726 533.054 282.19C590.095 297.111 645.479 334.026 685.896 361.137C686.927 361.821 687.951 362.502 688.968 363.178L689.097 363.263L689.138 363.29L689.139 363.291L689.141 363.293C698 369.179 706.286 374.684 713.558 379.141C748.009 400.484 746.899 439.643 730.923 467.314L730.42 468.185C711.458 500.143 671.434 523.083 623.968 506.581C680.328 532.575 728.533 506.734 750.51 469.617C768.306 439.801 770.088 396.963 732.369 373.733C726.266 370.013 719.538 365.534 712.367 360.76L712.366 360.759C708.933 358.473 705.398 356.12 701.781 353.75C657.351 324.03 596.336 283.284 533.528 266.776C458.845 247.189 400.217 266.213 354.769 324.803C354.174 325.331 351.189 329.998 346.786 337.624ZM340.436 488.509C314.299 443.206 348.149 375.015 363.747 347.998C366.826 342.665 369.15 338.935 370.241 337.184L370.243 337.18L370.244 337.179L370.244 337.178L370.246 337.175C370.578 336.641 370.796 336.293 370.884 336.14C464.697 215.416 602.564 307.215 684.705 362.193C685.753 362.888 686.793 363.579 687.826 364.266L687.922 364.329L687.952 364.349L687.955 364.352C696.812 370.236 705.096 375.74 712.368 380.197C745.947 401.037 744.56 439.164 729.088 465.964L728.584 466.835C709.262 499.379 667.562 522.424 618.396 501.989C658.772 513.54 692.382 493.468 708.678 466.091L709.181 465.22C723.522 440.381 724.74 405.061 693.524 386.167C691.466 384.812 689.299 383.394 687.043 381.917L687.042 381.917C681.454 378.259 675.317 374.243 668.912 369.924C632.601 345.764 583.067 312.808 532.135 299.381C471.884 283.478 422.569 299.454 385.565 346.94C385.55 346.966 385.485 347.067 385.374 347.239C381.75 352.845 329.006 434.432 358.332 485.187C372.916 510.748 408.064 501.699 448.367 491.268C486.063 481.48 531.586 469.728 573.418 482.724C528.065 471.083 479.572 483.542 439.079 493.946L438.618 494.064C392.472 506.06 355.95 515.478 340.436 488.509ZM380.927 358.497C366.964 382.682 336.703 443.649 360.084 484.165C374.082 508.225 406.48 499.913 447.814 489.206L448.882 488.933L448.882 488.933C487.762 478.991 534.523 467.033 577.309 481.627C538.096 464.67 493.713 476.145 457.468 485.517L457.161 485.597C421.326 494.83 390.646 502.682 377.452 480.248C351.536 435.46 397.874 363.71 401.271 358.451L401.272 358.449L401.273 358.447C401.382 358.278 401.446 358.179 401.462 358.152C434.071 316.263 477.636 302.196 530.906 316.102C575.67 327.769 619.273 356.92 651.101 378.198L651.491 378.459C654.842 380.636 658.058 382.786 661.133 384.842C665.425 387.711 669.444 390.398 673.179 392.723C701.127 409.73 700.053 440.776 687.347 462.782L686.97 463.436C672.074 488.363 641.043 506.38 604.113 494.168C649.944 515.746 689.114 494.997 707.061 464.867L707.438 464.213C721.276 440.246 722.518 406.393 692.517 387.91C685.566 383.619 677.454 378.129 669.1 372.475L667.905 371.667C594.32 322.501 471.419 240.505 387.401 348.29C387.057 348.382 384.575 352.179 380.927 358.497ZM379.422 479.352C359.015 443.748 385.56 390.223 397.888 368.871C399.164 366.66 400.29 364.794 401.17 363.333L401.171 363.332L401.171 363.332C402.461 361.193 403.226 359.924 403.171 359.72C476.878 264.727 585.088 336.903 649.923 380.149L650.141 380.294C658.044 385.728 665.636 390.692 672.047 394.684C698.779 411.28 697.429 441.295 684.883 462.521C669.218 489.175 634.42 507.418 593.836 488.046C625.796 498.298 652.549 482.868 665.354 461.124L665.732 460.47C676.676 441.514 677.732 414.526 653.706 399.783C649.261 396.983 644.336 393.719 638.978 390.169L638.973 390.166C638.104 389.59 637.224 389.006 636.332 388.416C635.872 388.112 635.409 387.805 634.943 387.497C607.314 368.931 569.479 343.891 530.423 333.544C484.26 321.417 446.32 333.793 418.104 370.085C416.251 372.791 374.247 435.984 397.318 476.03C408.586 495.533 435.023 488.763 465.815 480.877L466.357 480.738C497.201 472.642 535.054 462.819 568.638 476.492C531.171 464.502 490.251 475.018 456.482 483.752C420.304 493.078 391.686 500.377 379.422 479.352ZM415.193 379.153C404.626 397.455 381.545 443.974 399.322 474.573C409.726 492.781 434.689 486.277 465.838 478.115L466.137 478.038C493.687 470.951 526.468 462.517 557.241 470.143C530.196 461.208 500.3 468.834 475.688 475.112L475.369 475.193C449.032 482.066 426.475 487.925 416.782 471C398.192 438.778 429.412 389.069 433.867 381.974C433.998 381.767 434.105 381.597 434.187 381.464C434.259 381.348 434.312 381.262 434.345 381.204C489.553 310.238 569.858 363.865 617.867 395.941C622.546 399.107 627.027 401.973 630.911 404.457L630.911 404.457C631.882 405.078 632.815 405.675 633.705 406.247C654.119 419.195 653.425 442.035 643.99 458.376L643.739 458.812C633.391 476.318 612.133 489.107 586.716 482.658C620.926 498.154 650.233 482.314 663.519 459.774L663.896 459.12C674.337 441.036 675.2 415.388 652.608 401.182C647.898 398.216 642.492 394.638 636.714 390.814L636.674 390.787L636.516 390.682L636.356 390.576C635.455 389.98 634.545 389.378 633.627 388.771L633.408 388.625C577.346 351.317 483.759 289.036 419.973 370.873L415.193 379.153ZM418.752 470.103C403.858 444.073 423.223 404.996 432.155 389.526C433.985 386.356 435.465 384.122 436.031 383.267L436.032 383.265L436.033 383.265L436.033 383.264L436.033 383.264C436.166 383.063 436.248 382.939 436.272 382.898C490.13 313.767 569.472 366.547 616.609 398.119C621.509 401.435 626.192 404.421 630.326 407.059C630.803 407.363 631.273 407.662 631.734 407.957C632.048 408.157 632.359 408.355 632.665 408.552C651.898 420.527 650.927 442.336 641.778 457.679C630.324 477.04 605.063 490.269 575.704 476.225C595.859 480.905 613.462 471.092 622.123 456.499L622.374 456.064C630.048 442.773 630.506 423.864 613.888 413.398C611.468 412.001 608.894 410.293 606.129 408.459L606.129 408.459L606.127 408.458L606.126 408.457C604.412 407.32 602.626 406.135 600.757 404.945L600.748 404.939C561.294 378.674 495.618 334.953 450.426 393.103C450.388 393.167 450.32 393.278 450.224 393.431C450.17 393.518 450.107 393.619 450.035 393.733L450.034 393.734C446.382 399.546 420.786 440.282 436.087 466.748C444.045 480.639 462.822 475.792 484.348 470.208C504.572 464.95 529.385 458.601 551.648 466.177C525.65 459.921 497.984 467.07 474.817 473.131L474.342 473.252C448.013 479.941 427.371 485.186 418.752 470.103ZM438.308 465.416C426.262 444.516 442.038 412.663 449.334 400.026L449.334 400.025C451.221 396.757 452.353 394.796 452.697 394.704C496.542 338.386 560.917 381.363 599.499 407.124C604.384 410.235 608.834 413.095 612.63 415.577C628.067 425.07 627.366 442.386 620.195 454.806L619.944 455.241C610.165 471.675 588.084 482.748 562.684 468.373C537.598 454.175 508.737 461.473 485.196 467.425C484.696 467.552 484.198 467.678 483.703 467.803L482.432 468.122C461.637 473.341 445.32 477.437 438.308 465.416Z" fill="url(#paint0_linear_15_150)"/>
<defs>
<linearGradient id="paint0_linear_15_150" x1="342.455" y1="760.43" x2="734.479" y2="81.424" gradientUnits="userSpaceOnUse">
<stop stop-color="#FFD110" stop-opacity="0"/>
<stop offset="0.286458" stop-color="#109BFF"/>
<stop offset="0.614583" stop-color="#FF0469"/>
<stop offset="1" stop-color="#04DA00" stop-opacity="0"/>
</linearGradient>
</defs>
</svg>
