<svg width="775" height="815" viewBox="0 0 775 815" fill="none" xmlns="http://www.w3.org/2000/svg">
<g opacity="0.33">
<path d="M560.056 333.453C496.41 316.399 531.84 111.543 403.427 77.1344C354.944 64.1435 307.986 107.61 297.54 146.596C290.76 171.899 302.726 208.855 292.682 246.342C272.392 322.065 134.134 242.028 105.056 350.552C88.5826 412.031 125.263 477.305 174.12 490.396C208.189 499.525 256.667 482.582 282.125 489.403C318.628 499.184 282.038 571.343 278.336 592.65C269.519 643.524 312.204 701.366 360.686 714.357C426.203 731.913 447.53 639.592 459.232 595.921C504.03 428.73 605.776 570.902 643.593 429.765C651.227 401.275 657.491 329.227 618.556 318.794C595.531 312.624 595.997 343.083 560.056 333.453Z" stroke="url(#paint0_linear_15_282)" stroke-miterlimit="10"/>
<path d="M619.337 314.382C597.262 307.664 597.554 337.273 563.261 327.482C501.926 310.042 534.986 111.783 410.504 78.4278C385.233 71.6565 362.496 81.6354 341.603 93.7156C320.423 106.121 303.192 124.003 295.91 142.945C286.623 166.371 297.517 202.839 287.148 240.038C283.747 251.983 277.542 260.164 269.306 266.194C225.261 298.789 132.811 258.95 108.252 350.605C91.3771 413.583 121.615 478.939 168.199 493.028C200.519 502.693 247.719 489.023 274.711 496.858C290.896 501.597 293.206 517.684 291.056 536.193C288.262 559.35 277.934 585.913 276.943 597.098C272.127 645.026 314.395 696.931 363.44 710.073C427.834 727.327 450.174 641.707 463.058 600.361C477.586 553.629 496.598 530.599 516.655 517.893C563.567 488.075 616.355 526.929 640.95 427.65C642.973 419.353 644.964 407.431 646.032 394.458C648.52 367.201 646.918 337.241 631.299 321.404C627.92 318.289 623.966 315.824 619.337 314.382Z" stroke="url(#paint1_linear_15_282)" stroke-miterlimit="10"/>
<path d="M619.793 309.683C598.905 302.278 598.974 331.225 566.142 321.222C507.304 303.448 537.945 111.973 417.58 79.7213C390.438 72.4484 367.883 85.4895 344.557 96.9177C322.555 107.897 303.658 121.516 294.043 139.431C282.487 160.843 292.12 196.772 281.14 234.008C277.739 245.954 271.347 254.085 263.571 260.639C219.321 296.996 136.107 258.628 111.347 351.033C94.0708 415.51 118.054 480.998 162.227 495.847C192.798 506.048 238.72 495.652 267.059 504.451C283.144 509.564 286.216 525.052 285.203 543.062C283.97 565.633 275.405 590.86 275.414 601.309C275.021 646.203 316.911 692.784 366.33 706.026C429.788 723.029 453.091 644.297 467.021 605.039C482.681 560.82 502.83 537.291 522.877 522.373C568.685 488.442 615.784 524.566 638.256 425.723C640.192 417.001 642.183 405.079 643.302 391.919C646.041 363.725 645.973 334.778 631.317 317.592C628.039 314.102 624.372 311.312 619.793 309.683Z" stroke="url(#paint2_linear_15_282)" stroke-miterlimit="10"/>
<path d="M620.437 305.034C600.873 297.181 600.631 325.039 569.21 315.013C512.683 296.853 541.091 112.213 424.47 80.9646C395.268 73.14 373.083 89.2936 347.324 100.07C324.5 109.624 303.936 118.979 292.038 135.679C278.451 154.94 286.537 190.656 275.045 227.553C271.456 239.449 265.064 247.58 257.613 254.422C213.395 294.404 138.942 257.781 113.982 350.935C96.3033 416.912 113.981 482.719 155.556 498.279C184.516 509.253 229.022 501.893 258.658 511.842C274.693 517.143 278.427 532.407 278.601 549.73C278.742 571.665 272.127 595.606 273.136 605.319C276.98 647.129 318.591 688.011 368.384 701.353C430.906 718.106 455.036 646.023 470.148 609.091C487.128 567.436 508.176 543.545 528.265 526.227C572.967 488.183 614.191 521.528 634.914 423.22C636.713 414.26 638.567 402.101 639.973 388.616C643.101 359.723 644.329 331.927 630.737 313.017C628.208 309.728 624.592 306.75 620.437 305.034Z" stroke="url(#paint3_linear_15_282)" stroke-miterlimit="10"/>
<path d="M620.894 300.335C602.467 291.983 602.051 318.991 572.228 308.991C518.011 290.446 544.049 112.403 431.36 82.208C400.099 73.8316 378.421 93.3352 350.091 103.222C326.633 111.4 304.265 116.255 289.984 132.116C274.552 149.275 280.766 184.489 269.037 221.524C265.261 233.369 259.006 241.738 251.692 248.818C207.217 292.749 142.002 257.596 116.89 351.312C98.8101 418.788 110.233 484.728 149.347 501.235C176.559 512.745 219.786 508.659 250.956 519.622C266.89 525.298 271.337 540.15 272.46 556.924C273.976 578.223 269.31 600.878 271.268 610.041C279.4 648.581 320.632 684.138 370.8 697.581C432.199 714.032 457.292 648.837 473.637 614.043C491.886 575.139 513.746 550.461 533.963 531.169C577.698 489.249 613.095 519.627 631.883 421.805C633.732 412.658 635.262 400.211 636.905 386.589C640.946 356.533 643.421 330.076 630.705 309.393C628.326 305.541 624.998 302.239 620.894 300.335Z" stroke="url(#paint4_linear_15_282)" stroke-miterlimit="10"/>
<path d="M621.487 295.874C604.384 287.073 603.421 313.131 575.246 302.97C523.526 284.09 547.195 112.644 438.436 83.5018C405.303 74.6238 383.945 97.4274 353.045 106.424C329.139 113.277 305.155 113.681 288.354 128.465C271.264 143.573 275.606 178.285 263.316 215.17C259.403 226.778 253.098 235.334 246.057 242.889C201.515 290.819 145.211 256.849 119.899 351.315C101.417 420.291 106.585 486.362 143.238 503.817C168.888 515.913 210.65 515.05 243.116 527.165C259 533.028 264.109 547.656 266.42 563.743C269.497 584.456 266.593 605.776 269.552 614.202C281.97 649.471 322.823 679.703 373.365 693.246C433.828 709.447 459.697 651.089 477.275 618.434C496.606 582.23 519.604 557.053 540.049 535.411C582.815 489.617 612.013 516.926 629.102 419.453C630.814 410.068 632.394 397.434 634.088 383.624C638.092 352.957 642.051 327.701 630.349 305.481C628.445 301.354 625.404 297.727 621.487 295.874Z" stroke="url(#paint5_linear_15_282)" stroke-miterlimit="10"/>
<path d="M622.131 291.225C606.301 282.162 605.028 307.133 578.501 296.811C528.904 277.495 550.34 112.884 445.513 84.7952C410.321 75.3655 389.657 101.569 355.999 109.626C331.595 115.342 306.046 111.107 286.486 124.951C267.877 138.246 270.159 172.406 257.494 209.19C253.581 220.798 247.276 229.354 240.56 237.197C195.949 289.127 148.694 256.577 123.232 351.605C104.348 422.08 103.211 488.471 137.453 506.687C161.542 519.369 201.838 521.729 235.839 534.857C251.622 541.095 257.494 555.123 260.89 570.9C265.292 591.163 264.388 611.01 268.346 618.7C284.728 650.411 325.526 675.606 376.63 689.299C435.97 705.199 462.752 653.916 481.613 623.212C502.076 589.521 526.16 564.033 546.596 540.179C588.532 490.746 611.579 514.801 626.92 417.864C628.495 408.241 629.938 395.369 631.919 381.235C636.362 349.68 641.754 325.813 630.929 301.819C628.564 297.167 625.76 293.403 622.131 291.225Z" stroke="url(#paint6_linear_15_282)" stroke-miterlimit="10"/>
<path d="M622.587 286.526C606.48 280 606.448 301.085 581.382 290.552C534.096 270.85 553.299 113.074 452.215 85.9885C415.151 76.0572 394.944 105.798 358.629 112.541C333.677 117.306 306.799 108.296 284.345 120.962C264.265 132.256 264.302 165.814 251.262 202.498C247.162 214.056 240.807 222.799 234.415 230.93C189.735 286.859 151.343 255.679 125.729 351.27C106.444 423.245 98.8645 489.718 130.833 508.931C153.123 522.336 192.241 527.595 227.538 541.874C243.459 548.35 249.805 562.104 254.389 577.193C260.352 596.871 261.023 615.332 266.118 622.523C286.225 650.812 327.257 670.646 378.735 684.439C437.139 700.089 464.697 655.643 484.603 627.026C506.149 596.037 531.557 570.1 551.847 543.795C593.002 490.538 609.662 511.475 623.441 415.124C624.929 405.076 626.372 392.204 628.404 377.883C633.285 345.441 639.873 323.099 630.162 297.194C628.632 293.168 625.779 289.591 622.587 286.526Z" stroke="url(#paint7_linear_15_282)" stroke-miterlimit="10"/>
<path d="M623.231 281.877C608.11 275.415 607.918 294.85 584.4 284.53C539.424 264.443 556.258 113.264 459.292 87.2819C420.169 76.7989 400.605 110.128 361.582 115.743C336.321 119.42 308.014 106.01 282.478 117.448C261.065 126.978 258.855 159.935 245.491 196.331C241.254 207.651 235.036 216.632 228.781 225.001C184.17 285.167 154.689 255.17 128.875 351.51C109.188 424.984 95.3536 491.589 124.912 511.563C145.64 525.554 183.48 534.086 219.886 549.466C235.757 556.129 242.765 569.659 248.536 584.062C255.873 603.104 258.494 620.279 264.589 626.734C288.234 651.551 329.636 666.261 381.488 680.155C438.956 695.553 467.24 658.132 488.429 631.467C511.057 603.177 537.602 576.741 557.933 548.038C598.257 491.142 608.579 508.774 620.797 413.009C622.149 402.724 623.455 389.614 625.774 374.968C631.093 341.639 638.878 320.824 630.331 292.819C628.751 288.981 625.948 285.217 623.231 281.877Z" stroke="url(#paint8_linear_15_282)" stroke-miterlimit="10"/>
<path d="M623.688 277.178C609.603 270.591 609.338 288.801 587.468 278.321C544.802 257.849 559.404 113.504 466.182 88.5252C425 77.4904 406.08 114.407 364.349 118.895C338.54 121.622 308.991 103.861 280.611 113.935C258.001 121.939 253.459 153.868 239.483 190.302C235.059 201.572 228.977 210.79 222.859 219.396C178.504 283.85 157.611 254.747 131.596 351.838C111.507 426.811 91.3679 493.735 118.515 514.469C137.495 528.996 174.107 540.615 211.997 557.196C227.817 564.046 235.675 577.402 242.395 591.256C251.294 609.711 255.489 625.501 262.909 631.506C290.042 653.04 331.677 662.388 384.09 676.432C440.435 691.53 469.496 660.946 492.105 636.469C515.577 611.018 543.683 583.996 563.818 553.03C603.311 492.497 607.297 506.823 617.766 411.594C618.98 401.071 620.336 387.774 622.706 372.94C628.463 338.725 637.257 319.385 630.011 289.519C628.683 284.744 626.354 280.705 623.688 277.178Z" stroke="url(#paint9_linear_15_282)" stroke-miterlimit="10"/>
<path d="M624.281 272.717C611.182 266.193 610.758 282.754 590.486 272.3C549.943 251.392 562.312 113.881 473.208 90.0063C430.154 78.47 411.828 119.161 367.253 122.285C341.083 124.111 310.105 101.949 278.743 110.421C254.751 116.849 248.012 147.989 233.525 184.085C229.101 195.355 222.832 204.523 217.175 213.655C172.888 282.345 160.908 254.425 134.742 352.078C114.251 428.551 87.8566 495.607 112.356 517.238C129.724 532.539 164.92 547.193 204.158 564.738C219.927 571.776 228.447 584.907 236.167 598.025C246.627 615.894 252.348 630.485 261.005 635.617C291.439 653.816 333.681 657.903 386.469 672.047C441.878 686.894 471.477 663.285 495.556 640.809C519.923 618.008 549.354 590.537 569.529 557.172C608.379 493.051 605.653 503.972 614.798 409.192C615.876 398.431 617.095 384.897 619.702 369.926C625.847 335.01 635.887 317.009 629.755 285.232C628.801 280.557 626.71 276.381 624.281 272.717Z" stroke="url(#paint10_linear_15_282)" stroke-miterlimit="10"/>
<path d="M624.925 268.068C612.863 261.42 612.365 276.756 593.554 266.091C555.185 244.56 565.508 113.934 480.148 91.0623C435.035 78.9743 417.302 123.441 369.883 125.199C343.165 126.076 310.895 99.7505 276.552 106.62C251.313 111.709 242.291 141.635 227.379 177.818C222.818 188.85 216.687 198.256 211.167 207.625C167.135 280.603 163.693 253.765 137.376 351.98C116.484 429.953 83.7842 497.328 105.873 519.72C121.492 535.557 155.46 553.297 196.131 572.23C211.801 579.643 221.27 592.225 229.89 604.981C241.911 622.264 249.207 635.469 259.051 639.915C292.873 655.205 335.685 653.418 388.848 667.663C443.133 682.208 473.458 665.625 499.008 645.149C524.22 625.186 555.161 597.317 575.378 561.551C613.447 493.605 604.146 501.359 611.917 407.215C612.858 396.217 614.127 382.494 616.834 367.149C623.418 331.346 634.467 314.82 629.637 281.183C628.92 276.37 626.879 272.006 624.925 268.068Z" stroke="url(#paint11_linear_15_282)" stroke-miterlimit="10"/>
<path d="M625.382 263.369C614.493 256.835 613.648 270.47 596.623 259.881C560.426 237.727 568.466 114.124 487.038 92.3057C440.053 79.716 422.863 128.145 372.65 128.351C345.521 128.515 312.009 97.8391 274.735 102.918C248.112 106.432 236.945 135.381 221.472 171.413C216.723 182.395 210.728 192.039 205.346 201.646C161.757 278.961 166.852 253.206 140.335 352.17C119.04 431.642 80.0861 499.15 99.7139 522.489C113.721 539.1 146.325 559.688 188.292 579.772C204.098 587.423 214.042 599.73 223.849 611.8C237.432 628.497 246.253 640.503 257.284 644.263C294.307 656.594 337.827 649.17 391.363 663.515C444.713 677.81 475.44 667.963 502.597 649.727C528.566 632.177 561.206 603.959 581.039 565.881C618.464 494.347 602.453 498.695 608.662 405.137C609.466 393.901 610.598 379.942 613.543 364.459C620.565 327.769 632.436 312.669 629.094 277.22C628.801 272.321 627.235 267.682 625.382 263.369Z" stroke="url(#paint12_linear_15_282)" stroke-miterlimit="10"/>
<path d="M626.025 258.72C616.173 252.062 615.305 264.285 599.64 253.86C565.617 231.083 571.612 114.364 494.115 93.5991C445.07 80.4577 428.424 132.849 375.654 131.366C347.977 130.579 313.123 95.9277 272.917 99.2171C244.998 101.58 231.361 129.265 215.7 165.246C210.952 176.228 204.957 185.872 199.661 195.904C156.516 277.556 170.012 252.646 143.293 352.36C121.597 433.332 76.3376 501.159 93.6049 525.071C106.051 542.267 137.239 565.892 180.453 587.315C196.209 595.152 207.002 607.285 217.809 618.618C232.953 634.73 243.299 645.538 255.567 648.423C296.165 657.895 340.018 644.735 393.929 659.18C446.343 673.225 477.422 670.302 506.235 654.117C532.913 639.167 567.251 610.601 586.938 570.073C623.719 494.952 600.996 495.894 605.831 402.972C606.361 391.261 607.68 377.352 610.675 361.681C618.136 324.105 631.016 310.48 629.162 273.221C628.92 268.134 627.404 263.308 626.025 258.72Z" stroke="url(#paint13_linear_15_282)" stroke-miterlimit="10"/>
<path d="M626.432 254.208C617.565 247.614 616.588 257.999 602.658 247.838C570.808 224.438 574.52 114.742 500.954 95.0299C449.851 81.3368 433.935 137.741 378.37 134.705C350.282 133.206 313.949 94.3412 270.863 95.6533C241.51 96.6274 225.777 123.148 209.555 158.979C204.62 169.911 198.762 179.792 193.653 189.874C150.95 275.864 172.984 252.036 146.115 352.313C124.017 434.784 72.4522 502.93 87.3088 527.603C97.9559 545.522 127.966 572.045 172.664 594.669C188.37 602.695 199.875 614.416 211.769 625.437C228.474 640.963 240.345 650.572 253.8 652.771C297.735 659.521 342.159 640.487 396.445 655.033C447.736 668.776 479.403 672.641 509.824 658.695C537.259 646.158 573.195 617.618 592.924 574.69C629.061 495.981 599.439 493.468 603.137 401.045C603.53 389.097 604.713 374.95 607.995 358.954C615.894 320.491 629.596 308.292 629.23 269.221C629.039 263.947 627.811 258.796 626.432 254.208Z" stroke="url(#paint14_linear_15_282)" stroke-miterlimit="10"/>
<path d="M627.075 249.559C619.245 242.841 618.245 251.814 605.726 241.629C575.862 217.556 577.716 114.795 508.081 96.1362C455.105 81.9415 439.495 142.446 381.375 137.72C352.688 135.458 315.063 92.43 269.046 91.9523C238.259 91.5379 220.38 117.082 203.784 152.813C198.712 163.507 192.991 173.626 188.156 184.183C146.083 274.56 176.28 251.714 149.261 352.553C126.761 436.523 68.8909 504.99 81.3369 530.422C90.3723 549.116 119.017 578.487 165.012 602.262C180.667 610.475 193.022 622.022 205.728 632.256C224.182 647.246 237.578 655.657 252.083 656.932C299.593 660.823 344.351 636.053 399.011 650.699C449.365 664.191 481.247 674.743 513.463 663.085C541.469 652.911 579.24 624.26 598.822 578.882C634.553 496.449 597.983 490.667 600.119 398.83C600.375 386.644 601.421 372.26 604.941 356.127C613.465 316.827 627.988 306.053 628.924 265.122C628.97 259.71 628.167 254.472 627.075 249.559Z" stroke="url(#paint15_linear_15_282)" stroke-miterlimit="10"/>
<path d="M627.532 244.86C620.688 238.205 619.579 245.341 608.608 235.37C580.967 210.486 580.625 115.172 514.92 97.5668C459.886 82.8203 444.956 147.524 384.091 141.059C355.045 137.897 315.652 90.9805 267.179 88.4383C234.721 86.7726 214.984 111.015 197.826 146.595C192.754 157.29 186.983 167.596 182.284 178.391C140.842 273.155 179.39 251.342 152.169 352.931C129.268 438.4 65.0925 507.186 75.1277 533.379C82.4145 552.608 110.018 585.116 157.259 610.229C173.052 618.679 185.932 629.764 199.724 639.688C219.74 654.091 234.611 661.49 250.403 661.704C301.625 662.974 346.442 631.992 401.664 646.789C451.082 660.03 483.416 677.132 517.189 667.9C545.765 660.088 585.372 631.326 604.758 583.687C639.845 497.665 596.325 488.616 597.325 397.278C597.444 384.854 598.54 370.282 602.161 353.775C611.123 313.587 626.468 304.239 628.893 261.497C629.089 255.523 628.336 250.098 627.532 244.86Z" stroke="url(#paint16_linear_15_282)" stroke-miterlimit="10"/>
<path d="M628.176 240.212C622.368 233.432 621.099 238.918 611.813 229.399C586.259 203.467 583.771 115.413 521.81 98.8104C464.904 83.5624 450.28 152.366 386.858 144.212C357.213 140.286 316.479 89.3942 265.124 84.8747C231.233 81.8204 209.35 105.086 191.63 140.516C186.371 151.16 180.787 161.517 176.226 172.549C135.413 271.701 182.175 250.682 154.753 353.021C131.45 439.99 60.9697 509.095 68.4071 535.998C74.0822 556 100.371 591.169 148.858 617.621C164.601 626.259 178.38 636.982 193.123 646.356C214.75 659.986 231.282 666.425 248.262 665.952C303.059 664.363 348.209 627.644 403.992 642.591C452.288 655.532 485.074 679.183 520.59 672.427C549.975 666.841 591.18 638.106 610.419 588.016C644.863 498.407 594.444 485.902 594.257 395.251C594.239 382.59 595.198 367.78 599.056 351.135C608.457 310.061 624.437 302.088 628.537 257.585C628.97 251.473 628.692 245.774 628.176 240.212Z" stroke="url(#paint17_linear_15_282)" stroke-miterlimit="10"/>
<path d="M628.769 235.75C623.948 229.034 622.756 232.733 614.83 223.377C591.6 196.26 586.729 115.603 528.699 100.054C469.734 84.254 455.553 157.395 389.675 147.176C359.432 142.488 317.168 87.5699 263.17 80.9359C227.795 76.6804 203.866 98.5943 185.772 133.924C180.376 144.331 174.879 155.112 170.455 166.382C130.272 269.922 185.384 249.935 157.812 352.836C134.107 441.304 57.1342 510.678 62.3482 538.392C66.2244 559.118 91.3354 597.185 141.256 625.026C156.948 633.851 171.39 644.35 187.269 653.225C210.458 666.269 228.515 671.509 246.732 670.163C305.241 665.952 350.587 623.259 406.745 638.307C454.105 650.997 487.206 680.96 524.416 676.868C554.371 673.644 597.412 644.798 616.455 592.446C650.492 499.112 592.937 483.289 591.426 393.086C591.271 380.187 592.28 365.19 596.188 348.358C605.977 306.584 622.829 299.85 628.418 253.535C629.089 247.286 628.911 241.212 628.769 235.75Z" stroke="url(#paint18_linear_15_282)" stroke-miterlimit="10"/>
<path d="M629.226 231.051C625.441 224.211 624.327 226.122 617.711 217.118C596.992 188.865 589.687 115.793 535.776 101.347C474.751 84.9958 461.251 162.337 392.629 150.378C361.975 144.977 318.181 86.0335 261.489 77.4724C224.494 71.7781 198.607 92.7654 179.951 127.945C174.555 138.351 169.057 149.133 164.907 160.878C125.542 268.855 188.63 249.8 160.907 353.263C136.801 443.231 53.5228 512.925 56.3763 541.212C58.5038 562.473 82.6241 603.49 133.604 632.618C149.246 641.631 164.587 651.768 181.416 660.094C206.216 672.365 225.936 676.644 245.152 674.561C307.373 667.729 352.916 619.062 409.448 634.21C455.684 646.599 489.287 682.924 528.004 681.445C558.494 679.972 603.319 651.202 622.217 596.401C655.61 499.479 591.107 480.387 588.459 390.683C588.03 377.31 589.089 362.125 593.234 345.156C603.462 302.495 621.135 297.186 628.262 248.873C629.02 243.049 629.267 236.888 629.226 231.051Z" stroke="url(#paint19_linear_15_282)" stroke-miterlimit="10"/>
<path d="M629.87 226.402C627.121 219.438 626.085 219.562 620.967 210.959C602.809 181.384 592.883 115.846 542.903 102.453C480.007 85.6003 466.762 167.229 395.633 153.393C364.381 147.229 319.058 84.2595 259.723 73.5838C221.056 66.6382 193.31 86.3241 174.281 121.403C168.697 131.759 163.337 142.778 159.374 154.574C120.826 266.989 192.128 248.728 164.204 352.941C139.695 444.409 49.9754 514.184 50.5552 543.469C51.0711 565.504 73.8262 609.369 126.103 639.648C141.882 648.898 157.748 658.574 175.526 666.351C201.888 678.035 223.32 681.166 243.587 678.159C309.569 668.518 355.308 613.877 412.215 629.125C457.515 641.263 491.671 683.763 531.844 685.086C563.279 686.076 609.652 657.52 628.403 600.268C661.39 499.622 589.751 477.212 585.916 388.194C585.35 374.583 586.459 359.211 590.655 342.054C601.32 298.506 619.629 294.572 628.431 244.499C629.139 238.862 629.623 232.564 629.87 226.402Z" stroke="url(#paint20_linear_15_282)" stroke-miterlimit="10"/>
<path d="M630.326 221.703C629.838 214.541 627.843 213.002 623.798 204.887C608.676 173.715 595.792 116.223 549.743 103.884C484.787 86.4793 471.985 172.445 398.35 156.733C366.45 149.993 319.647 82.8101 257.618 70.2073C217.28 62.0104 187.626 80.5822 168.035 115.511C162.264 125.817 157.091 136.886 153.215 149.106C115.484 265.959 194.762 248.631 166.638 353.593C141.727 446.56 45.7021 516.655 43.8712 546.7C42.5882 569.459 64.2157 616.034 117.876 647.89C133.655 657.14 150.182 666.591 169.048 674.057C197.022 684.967 219.927 687.087 241.432 683.207C311.177 670.757 357.062 610.329 414.342 625.677C458.707 637.565 493.365 686.427 535.045 690.363C567.338 693.391 615.496 664.911 633.814 605.535C666.157 501.301 587.381 475.572 582.409 387.054C581.706 373.205 582.866 357.645 587.112 340.301C598.403 295.916 617.396 293.171 627.637 241.473C629.071 234.625 631.016 228.115 630.326 221.703Z" stroke="url(#paint21_linear_15_282)" stroke-miterlimit="10"/>
<path d="M630.97 217.054C631.043 210.043 629.6 206.442 626.866 198.678C615.155 166.009 598.75 116.413 556.445 105.078C489.617 87.1712 477.021 177.612 400.929 159.835C368.431 152.332 320.099 81.1234 255.427 66.406C213.418 56.9578 181.906 74.2281 161.94 109.056C156.219 119.175 150.996 130.432 147.207 143.077C110.53 264.23 197.734 248.021 169.459 353.546C144.147 448.012 41.6295 518.376 37.5751 549.232C34.5435 572.526 55.1802 622.051 109.9 655.195C125.628 664.632 143.005 673.909 162.87 680.638C192.269 690.725 217.024 691.934 239.528 687.317C312.985 672.246 359.066 605.844 416.721 621.293C459.963 632.879 495.36 687.966 538.496 694.703C571.785 700.007 621.354 671.503 639.525 609.677C671.462 501.718 585.5 472.859 579.392 384.839C578.364 370.702 579.574 354.955 584.108 337.286C595.837 292.014 615.465 290.644 627.381 237.186C629.189 230.439 630.947 223.878 630.97 217.054Z" stroke="url(#paint22_linear_15_282)" stroke-miterlimit="10"/>
<path d="M631.564 212.593C632.249 205.544 631.682 200.169 630.071 192.706C622.382 158.504 601.896 116.653 563.522 106.371C494.635 87.9128 482.481 182.691 403.883 163.037C370.787 154.771 320.925 79.5366 253.746 62.9423C210.304 52.1055 176.646 68.3991 156.119 103.077C150.211 113.145 145.312 124.69 141.522 137.335C105.663 262.926 200.844 247.649 172.418 353.736C146.653 449.889 37.6939 520.335 31.416 552.001C26.5855 576.019 46.0443 628.442 102.197 662.974C118.063 672.65 135.965 681.464 156.917 687.882C187.876 697.383 214.344 697.444 237.898 691.902C315.117 674.022 361.344 601.834 419.374 617.383C461.679 628.719 497.816 690.03 542.222 699.518C576.369 706.86 627.673 678.62 645.461 614.481C677.128 503.035 583.656 470.757 576.648 383.099C575.483 368.725 576.744 352.79 581.327 334.934C593.495 288.775 613.757 288.78 627.35 233.561C629.121 226.201 630.929 219.454 631.564 212.593Z" stroke="url(#paint23_linear_15_282)" stroke-miterlimit="10"/>
<path d="M632.02 207.894C639.736 166.368 611.968 118.749 570.598 107.664C499.653 88.6546 487.941 187.77 406.887 166.051C373.193 157.023 321.802 77.7626 251.979 59.0537C193.763 43.4546 151.557 72.9265 135.938 131.218C101.134 261.11 204.291 246.764 175.664 353.601C149.498 451.254 34.2831 521.832 25.5946 554.258C17.2074 585.559 49.5687 666.953 151.214 694.189C290.485 731.506 345.903 592.072 422.277 612.536C463.46 623.571 500.336 691.107 546.198 703.396C581.39 712.826 634.055 684.75 651.884 618.211C687.944 483.634 544.998 457.787 578.848 331.457C591.454 284.411 612.401 285.605 627.619 228.812C629.239 222.015 630.723 214.979 632.02 207.894Z" stroke="url(#paint24_linear_15_282)" stroke-miterlimit="10"/>
</g>
<defs>
<linearGradient id="paint0_linear_15_282" x1="454.543" y1="90.7892" x2="292.391" y2="695.95" gradientUnits="userSpaceOnUse">
<stop stop-color="#FFD110" stop-opacity="0"/>
<stop offset="0.286458" stop-color="#109BFF"/>
<stop offset="0.614583" stop-color="#FF0469"/>
<stop offset="1" stop-color="#04DA00" stop-opacity="0"/>
</linearGradient>
<linearGradient id="paint1_linear_15_282" x1="454.716" y1="90.2328" x2="293.668" y2="691.271" gradientUnits="userSpaceOnUse">
<stop stop-color="#FFD110" stop-opacity="0"/>
<stop offset="0.286458" stop-color="#109BFF"/>
<stop offset="0.614583" stop-color="#FF0469"/>
<stop offset="1" stop-color="#04DA00" stop-opacity="0"/>
</linearGradient>
<linearGradient id="paint2_linear_15_282" x1="454.939" y1="89.6901" x2="294.946" y2="686.792" gradientUnits="userSpaceOnUse">
<stop stop-color="#FFD110" stop-opacity="0"/>
<stop offset="0.286458" stop-color="#109BFF"/>
<stop offset="0.614583" stop-color="#FF0469"/>
<stop offset="1" stop-color="#04DA00" stop-opacity="0"/>
</linearGradient>
<linearGradient id="paint3_linear_15_282" x1="454.542" y1="88.9815" x2="295.704" y2="681.773" gradientUnits="userSpaceOnUse">
<stop stop-color="#FFD110" stop-opacity="0"/>
<stop offset="0.286458" stop-color="#109BFF"/>
<stop offset="0.614583" stop-color="#FF0469"/>
<stop offset="1" stop-color="#04DA00" stop-opacity="0"/>
</linearGradient>
<linearGradient id="paint4_linear_15_282" x1="454.694" y1="88.4195" x2="296.81" y2="677.65" gradientUnits="userSpaceOnUse">
<stop stop-color="#FFD110" stop-opacity="0"/>
<stop offset="0.286458" stop-color="#109BFF"/>
<stop offset="0.614583" stop-color="#FF0469"/>
<stop offset="1" stop-color="#04DA00" stop-opacity="0"/>
</linearGradient>
<linearGradient id="paint5_linear_15_282" x1="454.918" y1="87.8777" x2="298.139" y2="672.985" gradientUnits="userSpaceOnUse">
<stop stop-color="#FFD110" stop-opacity="0"/>
<stop offset="0.286458" stop-color="#109BFF"/>
<stop offset="0.614583" stop-color="#FF0469"/>
<stop offset="1" stop-color="#04DA00" stop-opacity="0"/>
</linearGradient>
<linearGradient id="paint6_linear_15_282" x1="455.827" y1="87.5186" x2="300.102" y2="668.691" gradientUnits="userSpaceOnUse">
<stop stop-color="#FFD110" stop-opacity="0"/>
<stop offset="0.286458" stop-color="#109BFF"/>
<stop offset="0.614583" stop-color="#FF0469"/>
<stop offset="1" stop-color="#04DA00" stop-opacity="0"/>
</linearGradient>
<linearGradient id="paint7_linear_15_282" x1="455.663" y1="86.8722" x2="301.143" y2="663.546" gradientUnits="userSpaceOnUse">
<stop stop-color="#FFD110" stop-opacity="0"/>
<stop offset="0.286458" stop-color="#109BFF"/>
<stop offset="0.614583" stop-color="#FF0469"/>
<stop offset="1" stop-color="#04DA00" stop-opacity="0"/>
</linearGradient>
<linearGradient id="paint8_linear_15_282" x1="456.598" y1="86.5204" x2="303.183" y2="659.071" gradientUnits="userSpaceOnUse">
<stop stop-color="#FFD110" stop-opacity="0"/>
<stop offset="0.286458" stop-color="#109BFF"/>
<stop offset="0.614583" stop-color="#FF0469"/>
<stop offset="1" stop-color="#04DA00" stop-opacity="0"/>
</linearGradient>
<linearGradient id="paint9_linear_15_282" x1="457.704" y1="86.2141" x2="305.225" y2="655.273" gradientUnits="userSpaceOnUse">
<stop stop-color="#FFD110" stop-opacity="0"/>
<stop offset="0.286458" stop-color="#109BFF"/>
<stop offset="0.614583" stop-color="#FF0469"/>
<stop offset="1" stop-color="#04DA00" stop-opacity="0"/>
</linearGradient>
<linearGradient id="paint10_linear_15_282" x1="458.894" y1="86.1314" x2="306.958" y2="653.161" gradientUnits="userSpaceOnUse">
<stop stop-color="#FFD110" stop-opacity="0"/>
<stop offset="0.286458" stop-color="#109BFF"/>
<stop offset="0.614583" stop-color="#FF0469"/>
<stop offset="1" stop-color="#04DA00" stop-opacity="0"/>
</linearGradient>
<linearGradient id="paint11_linear_15_282" x1="459.897" y1="85.5966" x2="307.472" y2="654.452" gradientUnits="userSpaceOnUse">
<stop stop-color="#FFD110" stop-opacity="0"/>
<stop offset="0.286458" stop-color="#109BFF"/>
<stop offset="0.614583" stop-color="#FF0469"/>
<stop offset="1" stop-color="#04DA00" stop-opacity="0"/>
</linearGradient>
<linearGradient id="paint12_linear_15_282" x1="461.012" y1="85.2925" x2="307.595" y2="657.853" gradientUnits="userSpaceOnUse">
<stop stop-color="#FFD110" stop-opacity="0"/>
<stop offset="0.286458" stop-color="#109BFF"/>
<stop offset="0.614583" stop-color="#FF0469"/>
<stop offset="1" stop-color="#04DA00" stop-opacity="0"/>
</linearGradient>
<linearGradient id="paint13_linear_15_282" x1="462.263" y1="85.0246" x2="307.59" y2="662.274" gradientUnits="userSpaceOnUse">
<stop stop-color="#FFD110" stop-opacity="0"/>
<stop offset="0.286458" stop-color="#109BFF"/>
<stop offset="0.614583" stop-color="#FF0469"/>
<stop offset="1" stop-color="#04DA00" stop-opacity="0"/>
</linearGradient>
<linearGradient id="paint14_linear_15_282" x1="463.454" y1="84.9415" x2="307.43" y2="667.229" gradientUnits="userSpaceOnUse">
<stop stop-color="#FFD110" stop-opacity="0"/>
<stop offset="0.286458" stop-color="#109BFF"/>
<stop offset="0.614583" stop-color="#FF0469"/>
<stop offset="1" stop-color="#04DA00" stop-opacity="0"/>
</linearGradient>
<linearGradient id="paint15_linear_15_282" x1="464.849" y1="84.5115" x2="307.342" y2="672.334" gradientUnits="userSpaceOnUse">
<stop stop-color="#FFD110" stop-opacity="0"/>
<stop offset="0.286458" stop-color="#109BFF"/>
<stop offset="0.614583" stop-color="#FF0469"/>
<stop offset="1" stop-color="#04DA00" stop-opacity="0"/>
</linearGradient>
<linearGradient id="paint16_linear_15_282" x1="466.064" y1="84.4345" x2="306.909" y2="678.406" gradientUnits="userSpaceOnUse">
<stop stop-color="#FFD110" stop-opacity="0"/>
<stop offset="0.286458" stop-color="#109BFF"/>
<stop offset="0.614583" stop-color="#FF0469"/>
<stop offset="1" stop-color="#04DA00" stop-opacity="0"/>
</linearGradient>
<linearGradient id="paint17_linear_15_282" x1="466.849" y1="84.0421" x2="306.068" y2="684.083" gradientUnits="userSpaceOnUse">
<stop stop-color="#FFD110" stop-opacity="0"/>
<stop offset="0.286458" stop-color="#109BFF"/>
<stop offset="0.614583" stop-color="#FF0469"/>
<stop offset="1" stop-color="#04DA00" stop-opacity="0"/>
</linearGradient>
<linearGradient id="paint18_linear_15_282" x1="468.017" y1="83.7521" x2="305.516" y2="690.215" gradientUnits="userSpaceOnUse">
<stop stop-color="#FFD110" stop-opacity="0"/>
<stop offset="0.286458" stop-color="#109BFF"/>
<stop offset="0.614583" stop-color="#FF0469"/>
<stop offset="1" stop-color="#04DA00" stop-opacity="0"/>
</linearGradient>
<linearGradient id="paint19_linear_15_282" x1="469.061" y1="83.4287" x2="304.751" y2="696.644" gradientUnits="userSpaceOnUse">
<stop stop-color="#FFD110" stop-opacity="0"/>
<stop offset="0.286458" stop-color="#109BFF"/>
<stop offset="0.614583" stop-color="#FF0469"/>
<stop offset="1" stop-color="#04DA00" stop-opacity="0"/>
</linearGradient>
<linearGradient id="paint20_linear_15_282" x1="470.304" y1="82.9576" x2="304.171" y2="702.973" gradientUnits="userSpaceOnUse">
<stop stop-color="#FFD110" stop-opacity="0"/>
<stop offset="0.286458" stop-color="#109BFF"/>
<stop offset="0.614583" stop-color="#FF0469"/>
<stop offset="1" stop-color="#04DA00" stop-opacity="0"/>
</linearGradient>
<linearGradient id="paint21_linear_15_282" x1="470.953" y1="82.7289" x2="302.625" y2="710.937" gradientUnits="userSpaceOnUse">
<stop stop-color="#FFD110" stop-opacity="0"/>
<stop offset="0.286458" stop-color="#109BFF"/>
<stop offset="0.614583" stop-color="#FF0469"/>
<stop offset="1" stop-color="#04DA00" stop-opacity="0"/>
</linearGradient>
<linearGradient id="paint22_linear_15_282" x1="471.716" y1="82.3305" x2="301.357" y2="718.12" gradientUnits="userSpaceOnUse">
<stop stop-color="#FFD110" stop-opacity="0"/>
<stop offset="0.286458" stop-color="#109BFF"/>
<stop offset="0.614583" stop-color="#FF0469"/>
<stop offset="1" stop-color="#04DA00" stop-opacity="0"/>
</linearGradient>
<linearGradient id="paint23_linear_15_282" x1="472.272" y1="81.8762" x2="299.641" y2="726.144" gradientUnits="userSpaceOnUse">
<stop stop-color="#FFD110" stop-opacity="0"/>
<stop offset="0.286458" stop-color="#109BFF"/>
<stop offset="0.614583" stop-color="#FF0469"/>
<stop offset="1" stop-color="#04DA00" stop-opacity="0"/>
</linearGradient>
<linearGradient id="paint24_linear_15_282" x1="472.524" y1="81.3404" x2="297.817" y2="733.355" gradientUnits="userSpaceOnUse">
<stop stop-color="#FFD110" stop-opacity="0"/>
<stop offset="0.286458" stop-color="#109BFF"/>
<stop offset="0.614583" stop-color="#FF0469"/>
<stop offset="1" stop-color="#04DA00" stop-opacity="0"/>
</linearGradient>
</defs>
</svg>
